<svg viewBox="0 0 468 138" fill="#474644" xmlns="http://www.w3.org/2000/svg">
<path d="M42.6719 12.6016C41.9167 13.1484 41.0312 13.5651 40.0156 13.8516C39.026 14.112 37.6849 14.2422 35.9922 14.2422C34.3255 14.2422 32.151 14.125 29.4688 13.8906C28.8438 15.5833 28.2057 17.5625 27.5547 19.8281L23.0625 35.1406C17.5156 53.474 11.6042 63.7604 5.32812 66C4.88542 66.1823 4.3125 66.2734 3.60938 66.2734C2.93229 66.2734 2.3724 66.1823 1.92969 66C1.51302 65.8438 1.16146 65.6354 0.875 65.375C0.302083 64.9062 0.015625 64.4375 0.015625 63.9688C0.015625 63.5 0.132812 63.1875 0.367188 63.0312L1.38281 62.4062C5.13281 59.9583 8.57031 53.4479 11.6953 42.875L14.5078 33.3438C17.0339 24.776 19.3906 18.0443 21.5781 13.1484C19.5208 12.9661 17.9583 12.875 16.8906 12.875C13.8177 12.875 11.6042 13.3047 10.25 14.1641C8.92188 15.0234 7.98438 15.9609 7.4375 16.9766C6.91667 17.9661 6.64323 18.6562 6.61719 19.0469C6.53906 19.776 6.30469 20.2448 5.91406 20.4531C5.52344 20.6354 5.04167 20.7266 4.46875 20.7266C3.92188 20.7266 3.34896 20.5312 2.75 20.1406C2.15104 19.724 1.65625 19.2031 1.26562 18.5781C0.432292 17.3021 0.106771 15.8698 0.289062 14.2812C0.471354 12.6667 0.992188 11.2865 1.85156 10.1406C2.73698 8.96875 3.77865 8.01823 4.97656 7.28906C7.1901 5.9349 9.52083 5.25781 11.9688 5.25781C14.4427 5.25781 16.7734 5.38802 18.9609 5.64844C21.1745 5.88281 23.375 6.15625 25.5625 6.46875C31.3698 7.25 35.0677 7.64062 36.6562 7.64062C38.2448 7.64062 39.4167 7.54948 40.1719 7.36719C40.9531 7.1849 41.6172 6.91146 42.1641 6.54688C42.7109 6.18229 43.0885 5.94792 43.2969 5.84375C43.5312 5.71354 43.8958 5.64844 44.3906 5.64844C45.1719 5.64844 45.5104 6.2474 45.4062 7.44531C45.3021 8.61719 45.0156 9.63281 44.5469 10.4922C44.0781 11.3255 43.4531 12.0286 42.6719 12.6016Z" />
<path d="M56.6953 16.4297C56.1224 17.0286 55.4714 17.5234 54.7422 17.9141C54.013 18.2786 53.2448 18.513 52.4375 18.6172C51.6302 18.6953 50.862 18.5651 50.1328 18.2266C49.4297 17.888 48.8177 17.4062 48.2969 16.7812C47.1771 15.4792 46.6172 14.1641 46.6172 12.8359C46.6172 11.5078 46.8255 10.5182 47.2422 9.86719C47.6849 9.1901 48.2318 8.64323 48.8828 8.22656C50.1328 7.41927 51.3047 7.01562 52.3984 7.01562C53.5182 7.01562 54.3776 7.09375 54.9766 7.25C55.6016 7.40625 56.1745 7.66667 56.6953 8.03125C57.9714 8.89062 58.6094 9.94531 58.6094 11.1953C58.6094 12.4193 58.4271 13.4479 58.0625 14.2812C57.724 15.0885 57.2682 15.8047 56.6953 16.4297ZM48.6875 58.6953C49.3646 58.6953 49.7031 59.138 49.7031 60.0234C49.7031 61.1953 49.1693 62.4062 48.1016 63.6562C46.5391 65.4792 44.4427 66.3906 41.8125 66.3906C38.7917 66.3906 36.7214 65.1667 35.6016 62.7188C35.1849 61.8594 34.9766 60.8177 34.9766 59.5938C34.9766 58.3698 35.1849 57.0156 35.6016 55.5312C36.0443 54.0208 36.5781 52.4453 37.2031 50.8047C37.8542 49.138 38.5573 47.4583 39.3125 45.7656L41.3828 40.8438C42.8932 37.1719 43.6484 34.75 43.6484 33.5781C43.6484 32.4062 43.5182 31.638 43.2578 31.2734C43.0234 30.8828 42.763 30.5833 42.4766 30.375L41.6953 29.8281C41.4349 29.6458 41.3047 29.3333 41.3047 28.8906C41.3047 28.4219 41.474 27.9792 41.8125 27.5625C42.1771 27.1458 42.6458 26.7812 43.2188 26.4688C44.3906 25.8698 45.7578 25.5703 47.3203 25.5703C51.1484 25.5703 53.0625 26.5729 53.0625 28.5781C53.0625 30.9219 52.4505 33.6042 51.2266 36.625C50.0026 39.6198 48.9609 42.0417 48.1016 43.8906L45.7578 49.2812C44.0391 53.2396 43.1797 56.0911 43.1797 57.8359C43.1797 58.9818 43.7526 59.5547 44.8984 59.5547C46.0182 59.5547 46.8646 59.4115 47.4375 59.125C48.0104 58.8385 48.4271 58.6953 48.6875 58.6953Z" />
<path d="M86.6562 32.9531C85.849 32.9531 84.7031 33.7344 83.2188 35.2969C81.7344 36.8333 80.4453 38.2396 79.3516 39.5156L76.0312 43.5L69.625 51.6641C68.1146 54.5286 66.9297 56.9115 66.0703 58.8125L63.9609 63.3438C63.4141 64.4635 62.9323 65.2578 62.5156 65.7266C62.125 66.1693 61.5781 66.3906 60.875 66.3906C60.1979 66.3906 59.5339 66.2604 58.8828 66C58.2578 65.7656 57.7109 65.4531 57.2422 65.0625C56.2526 64.2292 55.7578 63.3177 55.7578 62.3281C55.7578 61.9375 56.0443 61.1693 56.6172 60.0234L58.1016 56.8594C58.5703 55.9219 59.1172 54.724 59.7422 53.2656L61.9297 47.9141C65.0026 40.2318 66.5391 35.2708 66.5391 33.0312C66.5391 31.8333 66.1484 30.9479 65.3672 30.375L64.5859 29.8281C64.3255 29.6458 64.1953 29.3333 64.1953 28.8906C64.1953 28.4219 64.3646 27.9792 64.7031 27.5625C65.0677 27.1458 65.5365 26.7812 66.1094 26.4688C67.2812 25.8698 68.4531 25.5703 69.625 25.5703C70.8229 25.5703 71.7474 25.7005 72.3984 25.9609C73.0495 26.2214 73.5964 26.5729 74.0391 27.0156C75.0026 27.9271 75.4844 28.8776 75.4844 29.8672C75.4844 30.8568 75.3542 31.8594 75.0938 32.875C74.8594 33.8646 74.5469 34.8802 74.1562 35.9219C73.7917 36.9375 73.401 37.9401 72.9844 38.9297C72.5677 39.9193 72.1901 40.7786 71.8516 41.5078L71.0703 43.1875C70.862 43.6042 70.8099 43.7344 70.9141 43.5781C73.8047 39.5677 75.7057 36.9896 76.6172 35.8438L79.3516 32.5625C81.3568 30.2188 82.9323 28.6693 84.0781 27.9141C86.3958 26.3516 88.2188 25.5703 89.5469 25.5703C90.875 25.5703 91.9948 25.7396 92.9062 26.0781C93.8177 26.4167 94.612 26.8984 95.2891 27.5234C96.7214 28.8516 97.4375 30.5443 97.4375 32.6016C97.4375 34.6589 96.9688 36.8073 96.0312 39.0469C95.0938 41.2865 94.2734 43.1094 93.5703 44.5156C92.8932 45.8958 92.2422 47.3021 91.6172 48.7344C89.6641 53.0833 88.6875 56.2474 88.6875 58.2266C88.6875 59.112 89.3906 59.5547 90.7969 59.5547C91.8906 59.5547 92.8802 59.3203 93.7656 58.8516C94.6771 58.3828 95.263 58.1484 95.5234 58.1484C96.0703 58.1484 96.3438 58.4219 96.3438 58.9688C96.3438 61.2865 95.1589 63.2266 92.7891 64.7891C91.2005 65.8568 89.7422 66.3906 88.4141 66.3906C87.0859 66.3906 85.9792 66.2474 85.0938 65.9609C84.2344 65.6745 83.4661 65.2188 82.7891 64.5938C81.2526 63.2135 80.4844 61.2865 80.4844 58.8125C80.4844 55.7917 81.4349 52.0156 83.3359 47.4844C84.7161 44.3854 85.6927 42.263 86.2656 41.1172L87.5938 38.3438C88.401 36.6771 88.8047 35.362 88.8047 34.3984C88.8047 33.4349 88.0885 32.9531 86.6562 32.9531Z" />
<path d="M126.305 57.4844C122.346 63.4219 117.958 66.3906 113.141 66.3906C108.792 66.3906 105.862 64.0729 104.352 59.4375C103.831 57.849 103.57 55.8958 103.57 53.5781C103.57 51.2604 103.896 48.9427 104.547 46.625C105.224 44.2812 106.135 42.0677 107.281 39.9844C108.427 37.901 109.768 35.987 111.305 34.2422C112.867 32.4714 114.534 30.9479 116.305 29.6719C120.003 26.9375 123.674 25.5703 127.32 25.5703C130.966 25.5703 133.57 27.276 135.133 30.6875C135.445 30.349 135.732 30.0104 135.992 29.6719C136.253 29.3073 136.539 28.9688 136.852 28.6562C137.529 27.9792 138.115 27.6406 138.609 27.6406C139.13 27.6406 139.664 27.7318 140.211 27.9141C140.784 28.0964 141.331 28.3438 141.852 28.6562C143.128 29.4115 143.609 30.1146 143.297 30.7656C141.865 33.8646 140.667 36.9115 139.703 39.9062L133.922 58.3438C129.365 72.3281 123.583 81.3646 116.578 85.4531C114.729 86.5469 113.128 87.1719 111.773 87.3281C110.419 87.5104 109.443 87.5234 108.844 87.3672C108.245 87.2109 107.711 86.9896 107.242 86.7031C106.227 86.0521 105.719 85.4661 105.719 84.9453C105.719 84.0339 106.318 83.474 107.516 83.2656C108.74 83.0573 110.016 82.5625 111.344 81.7812C112.672 81.026 113.935 80.1016 115.133 79.0078C120.055 74.4505 123.779 67.276 126.305 57.4844ZM114.586 43.9297C113.909 45.8047 113.375 47.7318 112.984 49.7109C112.594 51.6641 112.398 53.2656 112.398 54.5156C112.398 55.7656 112.438 56.7161 112.516 57.3672C112.594 58.0182 112.75 58.5911 112.984 59.0859C113.505 60.1797 114.273 60.7266 115.289 60.7266C116.305 60.7266 117.307 60.375 118.297 59.6719C119.286 58.9427 120.328 57.9531 121.422 56.7031C122.516 55.4531 123.609 53.9818 124.703 52.2891C125.797 50.5964 126.839 48.7734 127.828 46.8203C130.016 42.4974 131.552 38.3698 132.438 34.4375C132.307 33.7083 131.865 32.9661 131.109 32.2109C129.625 30.7786 128.284 30.0625 127.086 30.0625C125.888 30.0625 124.69 30.4401 123.492 31.1953C122.294 31.9245 121.148 32.9271 120.055 34.2031C118.987 35.4531 117.984 36.9245 117.047 38.6172C116.109 40.2839 115.289 42.0547 114.586 43.9297Z" />
<path d="M147.516 64.4375C146.865 63.7604 146.331 62.901 145.914 61.8594C145.523 60.7917 145.328 59.5677 145.328 58.1875C145.328 56.7812 145.641 54.9062 146.266 52.5625C146.917 50.2188 147.737 47.5495 148.727 44.5547L152.008 34.8281C156.669 21.2865 159.365 10.8177 160.094 3.42188C160.328 1.23438 161.396 0.140625 163.297 0.140625C164.495 0.140625 165.484 0.427083 166.266 1C167.776 2.14583 168.505 3.42188 168.453 4.82812C168.401 6.23438 168.154 7.95312 167.711 9.98438C167.268 11.9896 166.695 14.1901 165.992 16.5859C165.289 18.9557 164.482 21.4688 163.57 24.125L158.18 39.9844C155.081 48.9948 153.531 54.8151 153.531 57.4453C153.531 58.8516 154.104 59.5547 155.25 59.5547C156.344 59.5547 157.333 59.3203 158.219 58.8516C159.13 58.3828 159.716 58.1484 159.977 58.1484C160.523 58.1484 160.797 58.4219 160.797 58.9688C160.797 61.2865 159.612 63.2266 157.242 64.7891C155.654 65.8568 154.195 66.3906 152.867 66.3906C151.565 66.3906 150.51 66.2344 149.703 65.9219C148.896 65.6094 148.167 65.1146 147.516 64.4375Z" />
<path d="M189.039 16.4297C188.466 17.0286 187.815 17.5234 187.086 17.9141C186.357 18.2786 185.589 18.513 184.781 18.6172C183.974 18.6953 183.206 18.5651 182.477 18.2266C181.773 17.888 181.161 17.4062 180.641 16.7812C179.521 15.4792 178.961 14.1641 178.961 12.8359C178.961 11.5078 179.169 10.5182 179.586 9.86719C180.029 9.1901 180.576 8.64323 181.227 8.22656C182.477 7.41927 183.648 7.01562 184.742 7.01562C185.862 7.01562 186.721 7.09375 187.32 7.25C187.945 7.40625 188.518 7.66667 189.039 8.03125C190.315 8.89062 190.953 9.94531 190.953 11.1953C190.953 12.4193 190.771 13.4479 190.406 14.2812C190.068 15.0885 189.612 15.8047 189.039 16.4297ZM181.031 58.6953C181.708 58.6953 182.047 59.138 182.047 60.0234C182.047 61.1953 181.513 62.4062 180.445 63.6562C178.883 65.4792 176.786 66.3906 174.156 66.3906C171.135 66.3906 169.065 65.1667 167.945 62.7188C167.529 61.8594 167.32 60.8177 167.32 59.5938C167.32 58.3698 167.529 57.0156 167.945 55.5312C168.388 54.0208 168.922 52.4453 169.547 50.8047C170.198 49.138 170.901 47.4583 171.656 45.7656L173.727 40.8438C175.237 37.1719 175.992 34.75 175.992 33.5781C175.992 32.4062 175.862 31.638 175.602 31.2734C175.367 30.8828 175.107 30.5833 174.82 30.375L174.039 29.8281C173.779 29.6458 173.648 29.3333 173.648 28.8906C173.648 28.4219 173.818 27.9792 174.156 27.5625C174.521 27.1458 174.99 26.7812 175.562 26.4688C176.734 25.8698 178.102 25.5703 179.664 25.5703C183.492 25.5703 185.406 26.5729 185.406 28.5781C185.406 30.9219 184.794 33.6042 183.57 36.625C182.346 39.6198 181.305 42.0417 180.445 43.8906L178.102 49.2812C176.383 53.2396 175.523 56.0911 175.523 57.8359C175.523 58.9818 176.096 59.5547 177.242 59.5547C178.362 59.5547 179.208 59.4115 179.781 59.125C180.354 58.8385 180.771 58.6953 181.031 58.6953Z" />
<path d="M219 32.9531C218.193 32.9531 217.047 33.7344 215.562 35.2969C214.078 36.8333 212.789 38.2396 211.695 39.5156L208.375 43.5L201.969 51.6641C200.458 54.5286 199.273 56.9115 198.414 58.8125L196.305 63.3438C195.758 64.4635 195.276 65.2578 194.859 65.7266C194.469 66.1693 193.922 66.3906 193.219 66.3906C192.542 66.3906 191.878 66.2604 191.227 66C190.602 65.7656 190.055 65.4531 189.586 65.0625C188.596 64.2292 188.102 63.3177 188.102 62.3281C188.102 61.9375 188.388 61.1693 188.961 60.0234L190.445 56.8594C190.914 55.9219 191.461 54.724 192.086 53.2656L194.273 47.9141C197.346 40.2318 198.883 35.2708 198.883 33.0312C198.883 31.8333 198.492 30.9479 197.711 30.375L196.93 29.8281C196.669 29.6458 196.539 29.3333 196.539 28.8906C196.539 28.4219 196.708 27.9792 197.047 27.5625C197.411 27.1458 197.88 26.7812 198.453 26.4688C199.625 25.8698 200.797 25.5703 201.969 25.5703C203.167 25.5703 204.091 25.7005 204.742 25.9609C205.393 26.2214 205.94 26.5729 206.383 27.0156C207.346 27.9271 207.828 28.8776 207.828 29.8672C207.828 30.8568 207.698 31.8594 207.438 32.875C207.203 33.8646 206.891 34.8802 206.5 35.9219C206.135 36.9375 205.745 37.9401 205.328 38.9297C204.911 39.9193 204.534 40.7786 204.195 41.5078L203.414 43.1875C203.206 43.6042 203.154 43.7344 203.258 43.5781C206.148 39.5677 208.049 36.9896 208.961 35.8438L211.695 32.5625C213.701 30.2188 215.276 28.6693 216.422 27.9141C218.74 26.3516 220.562 25.5703 221.891 25.5703C223.219 25.5703 224.339 25.7396 225.25 26.0781C226.161 26.4167 226.956 26.8984 227.633 27.5234C229.065 28.8516 229.781 30.5443 229.781 32.6016C229.781 34.6589 229.312 36.8073 228.375 39.0469C227.438 41.2865 226.617 43.1094 225.914 44.5156C225.237 45.8958 224.586 47.3021 223.961 48.7344C222.008 53.0833 221.031 56.2474 221.031 58.2266C221.031 59.112 221.734 59.5547 223.141 59.5547C224.234 59.5547 225.224 59.3203 226.109 58.8516C227.021 58.3828 227.607 58.1484 227.867 58.1484C228.414 58.1484 228.688 58.4219 228.688 58.9688C228.688 61.2865 227.503 63.2266 225.133 64.7891C223.544 65.8568 222.086 66.3906 220.758 66.3906C219.43 66.3906 218.323 66.2474 217.438 65.9609C216.578 65.6745 215.81 65.2188 215.133 64.5938C213.596 63.2135 212.828 61.2865 212.828 58.8125C212.828 55.7917 213.779 52.0156 215.68 47.4844C217.06 44.3854 218.036 42.263 218.609 41.1172L219.938 38.3438C220.745 36.6771 221.148 35.362 221.148 34.3984C221.148 33.4349 220.432 32.9531 219 32.9531Z" />
<path d="M258.648 57.4844C254.69 63.4219 250.302 66.3906 245.484 66.3906C241.135 66.3906 238.206 64.0729 236.695 59.4375C236.174 57.849 235.914 55.8958 235.914 53.5781C235.914 51.2604 236.24 48.9427 236.891 46.625C237.568 44.2812 238.479 42.0677 239.625 39.9844C240.771 37.901 242.112 35.987 243.648 34.2422C245.211 32.4714 246.878 30.9479 248.648 29.6719C252.346 26.9375 256.018 25.5703 259.664 25.5703C263.31 25.5703 265.914 27.276 267.477 30.6875C267.789 30.349 268.076 30.0104 268.336 29.6719C268.596 29.3073 268.883 28.9688 269.195 28.6562C269.872 27.9792 270.458 27.6406 270.953 27.6406C271.474 27.6406 272.008 27.7318 272.555 27.9141C273.128 28.0964 273.674 28.3438 274.195 28.6562C275.471 29.4115 275.953 30.1146 275.641 30.7656C274.208 33.8646 273.01 36.9115 272.047 39.9062L266.266 58.3438C261.708 72.3281 255.927 81.3646 248.922 85.4531C247.073 86.5469 245.471 87.1719 244.117 87.3281C242.763 87.5104 241.786 87.5234 241.188 87.3672C240.589 87.2109 240.055 86.9896 239.586 86.7031C238.57 86.0521 238.062 85.4661 238.062 84.9453C238.062 84.0339 238.661 83.474 239.859 83.2656C241.083 83.0573 242.359 82.5625 243.688 81.7812C245.016 81.026 246.279 80.1016 247.477 79.0078C252.398 74.4505 256.122 67.276 258.648 57.4844ZM246.93 43.9297C246.253 45.8047 245.719 47.7318 245.328 49.7109C244.938 51.6641 244.742 53.2656 244.742 54.5156C244.742 55.7656 244.781 56.7161 244.859 57.3672C244.938 58.0182 245.094 58.5911 245.328 59.0859C245.849 60.1797 246.617 60.7266 247.633 60.7266C248.648 60.7266 249.651 60.375 250.641 59.6719C251.63 58.9427 252.672 57.9531 253.766 56.7031C254.859 55.4531 255.953 53.9818 257.047 52.2891C258.141 50.5964 259.182 48.7734 260.172 46.8203C262.359 42.4974 263.896 38.3698 264.781 34.4375C264.651 33.7083 264.208 32.9661 263.453 32.2109C261.969 30.7786 260.628 30.0625 259.43 30.0625C258.232 30.0625 257.034 30.4401 255.836 31.1953C254.638 31.9245 253.492 32.9271 252.398 34.2031C251.331 35.4531 250.328 36.9245 249.391 38.6172C248.453 40.2839 247.633 42.0547 246.93 43.9297Z" />
<path d="M347.359 12.6016C346.604 13.1484 345.719 13.5651 344.703 13.8516C343.714 14.112 342.372 14.2422 340.68 14.2422C339.013 14.2422 336.839 14.125 334.156 13.8906C333.531 15.5833 332.893 17.5625 332.242 19.8281L327.75 35.1406C322.203 53.474 316.292 63.7604 310.016 66C309.573 66.1823 309 66.2734 308.297 66.2734C307.62 66.2734 307.06 66.1823 306.617 66C306.201 65.8438 305.849 65.6354 305.562 65.375C304.99 64.9062 304.703 64.4375 304.703 63.9688C304.703 63.5 304.82 63.1875 305.055 63.0312L306.07 62.4062C309.82 59.9583 313.258 53.4479 316.383 42.875L319.195 33.3438C321.721 24.776 324.078 18.0443 326.266 13.1484C324.208 12.9661 322.646 12.875 321.578 12.875C318.505 12.875 316.292 13.3047 314.938 14.1641C313.609 15.0234 312.672 15.9609 312.125 16.9766C311.604 17.9661 311.331 18.6562 311.305 19.0469C311.227 19.776 310.992 20.2448 310.602 20.4531C310.211 20.6354 309.729 20.7266 309.156 20.7266C308.609 20.7266 308.036 20.5312 307.438 20.1406C306.839 19.724 306.344 19.2031 305.953 18.5781C305.12 17.3021 304.794 15.8698 304.977 14.2812C305.159 12.6667 305.68 11.2865 306.539 10.1406C307.424 8.96875 308.466 8.01823 309.664 7.28906C311.878 5.9349 314.208 5.25781 316.656 5.25781C319.13 5.25781 321.461 5.38802 323.648 5.64844C325.862 5.88281 328.062 6.15625 330.25 6.46875C336.057 7.25 339.755 7.64062 341.344 7.64062C342.932 7.64062 344.104 7.54948 344.859 7.36719C345.641 7.1849 346.305 6.91146 346.852 6.54688C347.398 6.18229 347.776 5.94792 347.984 5.84375C348.219 5.71354 348.583 5.64844 349.078 5.64844C349.859 5.64844 350.198 6.2474 350.094 7.44531C349.99 8.61719 349.703 9.63281 349.234 10.4922C348.766 11.3255 348.141 12.0286 347.359 12.6016Z" />
<path d="M361.383 16.4297C360.81 17.0286 360.159 17.5234 359.43 17.9141C358.701 18.2786 357.932 18.513 357.125 18.6172C356.318 18.6953 355.549 18.5651 354.82 18.2266C354.117 17.888 353.505 17.4062 352.984 16.7812C351.865 15.4792 351.305 14.1641 351.305 12.8359C351.305 11.5078 351.513 10.5182 351.93 9.86719C352.372 9.1901 352.919 8.64323 353.57 8.22656C354.82 7.41927 355.992 7.01562 357.086 7.01562C358.206 7.01562 359.065 7.09375 359.664 7.25C360.289 7.40625 360.862 7.66667 361.383 8.03125C362.659 8.89062 363.297 9.94531 363.297 11.1953C363.297 12.4193 363.115 13.4479 362.75 14.2812C362.411 15.0885 361.956 15.8047 361.383 16.4297ZM353.375 58.6953C354.052 58.6953 354.391 59.138 354.391 60.0234C354.391 61.1953 353.857 62.4062 352.789 63.6562C351.227 65.4792 349.13 66.3906 346.5 66.3906C343.479 66.3906 341.409 65.1667 340.289 62.7188C339.872 61.8594 339.664 60.8177 339.664 59.5938C339.664 58.3698 339.872 57.0156 340.289 55.5312C340.732 54.0208 341.266 52.4453 341.891 50.8047C342.542 49.138 343.245 47.4583 344 45.7656L346.07 40.8438C347.581 37.1719 348.336 34.75 348.336 33.5781C348.336 32.4062 348.206 31.638 347.945 31.2734C347.711 30.8828 347.451 30.5833 347.164 30.375L346.383 29.8281C346.122 29.6458 345.992 29.3333 345.992 28.8906C345.992 28.4219 346.161 27.9792 346.5 27.5625C346.865 27.1458 347.333 26.7812 347.906 26.4688C349.078 25.8698 350.445 25.5703 352.008 25.5703C355.836 25.5703 357.75 26.5729 357.75 28.5781C357.75 30.9219 357.138 33.6042 355.914 36.625C354.69 39.6198 353.648 42.0417 352.789 43.8906L350.445 49.2812C348.727 53.2396 347.867 56.0911 347.867 57.8359C347.867 58.9818 348.44 59.5547 349.586 59.5547C350.706 59.5547 351.552 59.4115 352.125 59.125C352.698 58.8385 353.115 58.6953 353.375 58.6953Z" />
<path d="M391.344 32.9531C390.536 32.9531 389.391 33.7344 387.906 35.2969C386.422 36.8333 385.133 38.2396 384.039 39.5156L380.719 43.5L374.312 51.6641C372.802 54.5286 371.617 56.9115 370.758 58.8125L368.648 63.3438C368.102 64.4635 367.62 65.2578 367.203 65.7266C366.812 66.1693 366.266 66.3906 365.562 66.3906C364.885 66.3906 364.221 66.2604 363.57 66C362.945 65.7656 362.398 65.4531 361.93 65.0625C360.94 64.2292 360.445 63.3177 360.445 62.3281C360.445 61.9375 360.732 61.1693 361.305 60.0234L362.789 56.8594C363.258 55.9219 363.805 54.724 364.43 53.2656L366.617 47.9141C369.69 40.2318 371.227 35.2708 371.227 33.0312C371.227 31.8333 370.836 30.9479 370.055 30.375L369.273 29.8281C369.013 29.6458 368.883 29.3333 368.883 28.8906C368.883 28.4219 369.052 27.9792 369.391 27.5625C369.755 27.1458 370.224 26.7812 370.797 26.4688C371.969 25.8698 373.141 25.5703 374.312 25.5703C375.51 25.5703 376.435 25.7005 377.086 25.9609C377.737 26.2214 378.284 26.5729 378.727 27.0156C379.69 27.9271 380.172 28.8776 380.172 29.8672C380.172 30.8568 380.042 31.8594 379.781 32.875C379.547 33.8646 379.234 34.8802 378.844 35.9219C378.479 36.9375 378.089 37.9401 377.672 38.9297C377.255 39.9193 376.878 40.7786 376.539 41.5078L375.758 43.1875C375.549 43.6042 375.497 43.7344 375.602 43.5781C378.492 39.5677 380.393 36.9896 381.305 35.8438L384.039 32.5625C386.044 30.2188 387.62 28.6693 388.766 27.9141C391.083 26.3516 392.906 25.5703 394.234 25.5703C395.562 25.5703 396.682 25.7396 397.594 26.0781C398.505 26.4167 399.299 26.8984 399.977 27.5234C401.409 28.8516 402.125 30.5443 402.125 32.6016C402.125 34.6589 401.656 36.8073 400.719 39.0469C399.781 41.2865 398.961 43.1094 398.258 44.5156C397.581 45.8958 396.93 47.3021 396.305 48.7344C394.352 53.0833 393.375 56.2474 393.375 58.2266C393.375 59.112 394.078 59.5547 395.484 59.5547C396.578 59.5547 397.568 59.3203 398.453 58.8516C399.365 58.3828 399.951 58.1484 400.211 58.1484C400.758 58.1484 401.031 58.4219 401.031 58.9688C401.031 61.2865 399.846 63.2266 397.477 64.7891C395.888 65.8568 394.43 66.3906 393.102 66.3906C391.773 66.3906 390.667 66.2474 389.781 65.9609C388.922 65.6745 388.154 65.2188 387.477 64.5938C385.94 63.2135 385.172 61.2865 385.172 58.8125C385.172 55.7917 386.122 52.0156 388.023 47.4844C389.404 44.3854 390.38 42.263 390.953 41.1172L392.281 38.3438C393.089 36.6771 393.492 35.362 393.492 34.3984C393.492 33.4349 392.776 32.9531 391.344 32.9531Z" />
<path d="M430.836 55.7656C431.591 55.7656 431.969 56.2734 431.969 57.2891C431.969 58.1484 431.708 58.9818 431.188 59.7891C430.484 61.2995 429.078 62.7318 426.969 64.0859C424.573 65.6224 422.164 66.3906 419.742 66.3906C415.549 66.3906 412.893 64.5156 411.773 60.7656C410.445 56.3125 412.438 46.8724 417.75 32.4453C414.755 32.1849 413.128 31.6641 412.867 30.8828C412.789 30.6484 412.75 30.401 412.75 30.1406C412.75 29.8542 412.867 29.5286 413.102 29.1641C413.362 28.7995 413.688 28.4479 414.078 28.1094C414.99 27.3542 415.914 26.9766 416.852 26.9766H419.938C422.75 20.388 424.755 16.638 425.953 15.7266C426.526 15.3099 427.164 15.1016 427.867 15.1016C428.57 15.1016 429.156 15.1927 429.625 15.375C430.094 15.5573 430.51 15.8177 430.875 16.1562C431.708 16.9375 432.125 17.8099 432.125 18.7734C432.125 19.2943 431.969 19.8932 431.656 20.5703L428.766 26.8594H429.703C431.318 26.8594 432.62 26.8464 433.609 26.8203C433.609 26.8203 434.352 26.8073 435.836 26.7812C436.331 26.7552 436.943 26.7422 437.672 26.7422C438.427 26.7422 438.805 27.0156 438.805 27.5625C438.805 31 434.742 32.7188 426.617 32.7188H426.305L423.648 39.5938C420.654 47.7188 419.156 53.4089 419.156 56.6641C419.156 57.5755 419.365 58.2917 419.781 58.8125C420.198 59.3073 420.979 59.5547 422.125 59.5547C423.271 59.5547 424.312 59.3594 425.25 58.9688C426.188 58.5781 427.008 58.1484 427.711 57.6797C428.414 57.1849 429.013 56.7422 429.508 56.3516C430.029 55.9609 430.471 55.7656 430.836 55.7656Z" />
<path d="M434.977 59.125C434.977 58.3177 435.146 57.5755 435.484 56.8984C435.849 56.1953 436.292 55.6094 436.812 55.1406C437.906 54.125 439.052 53.6172 440.25 53.6172C441.292 53.6172 441.812 54.151 441.812 55.2188C441.812 57.9271 442.711 59.8151 444.508 60.8828C445.159 61.2734 445.836 61.4688 446.539 61.4688C447.242 61.4688 447.841 61.3906 448.336 61.2344C448.831 61.0781 449.286 60.8307 449.703 60.4922C450.641 59.737 451.109 58.8385 451.109 57.7969C451.109 56.7552 450.875 55.8047 450.406 54.9453C449.938 54.0599 449.352 53.1354 448.648 52.1719L446.422 49.0469C443.297 44.8802 441.734 41.0391 441.734 37.5234C441.734 34.6068 442.971 31.9635 445.445 29.5938C448.258 26.9115 451.865 25.5703 456.266 25.5703C460.12 25.5703 463.128 26.5208 465.289 28.4219C467.06 29.9583 467.945 31.7161 467.945 33.6953C467.945 35.7526 467.164 37.3932 465.602 38.6172C464.195 39.7109 462.789 40.1146 461.383 39.8281C460.758 39.6979 460.276 39.3854 459.938 38.8906C459.599 38.3698 459.534 37.7839 459.742 37.1328C459.951 36.4818 460.055 35.8047 460.055 35.1016C460.055 34.3984 459.924 33.7474 459.664 33.1484C459.404 32.5495 459.052 32.0417 458.609 31.625C457.698 30.7656 456.734 30.3359 455.719 30.3359C454.729 30.3359 453.909 30.4531 453.258 30.6875C452.607 30.8958 452.034 31.2083 451.539 31.625C450.523 32.5625 450.016 33.7214 450.016 35.1016C450.016 36.4557 450.25 37.6276 450.719 38.6172C451.188 39.6068 451.76 40.5964 452.438 41.5859C453.141 42.5755 453.896 43.5781 454.703 44.5938C455.51 45.6094 456.253 46.6771 456.93 47.7969C458.57 50.4271 459.391 52.7448 459.391 54.75C459.391 56.7292 458.974 58.3958 458.141 59.75C457.307 61.0781 456.227 62.224 454.898 63.1875C452.06 65.2969 448.883 66.3516 445.367 66.3516C442.008 66.3516 439.352 65.5443 437.398 63.9297C435.784 62.5755 434.977 60.974 434.977 59.125Z" />
<path d="M81.8945 124.773C80.1237 126.336 78.7305 127.117 77.7148 127.117C76.7122 127.117 76.0156 126.596 75.625 125.555C75.4818 125.19 75.4102 124.852 75.4102 124.539C75.4102 123.693 75.5404 122.872 75.8008 122.078C76.0742 121.284 76.3411 120.542 76.6016 119.852L78.3203 115.418C78.9844 113.608 79.388 112.345 79.5312 111.629C79.6745 110.913 79.6549 110.431 79.4727 110.184C79.2904 109.923 79.0755 109.702 78.8281 109.52C78.5938 109.324 78.3659 109.155 78.1445 109.012C77.9362 108.855 77.832 108.667 77.832 108.445C77.832 108.211 77.9232 107.99 78.1055 107.781C78.3008 107.573 78.5547 107.391 78.8672 107.234C79.4922 106.935 80.1367 106.785 80.8008 106.785C81.4779 106.785 82.0052 106.857 82.3828 107C82.7734 107.13 83.0924 107.299 83.3398 107.508C83.8216 107.938 84.0625 108.458 84.0625 109.07C84.0625 109.669 83.9583 110.346 83.75 111.102C83.5547 111.857 83.3008 112.658 82.9883 113.504C82.6888 114.35 82.3503 115.229 81.9727 116.141L80.8984 118.836C80.0521 121.01 79.5378 122.638 79.3555 123.719C80.5794 123.302 82.2005 121.805 84.2188 119.227C86.4193 116.401 88.3659 113.178 90.0586 109.559C90.2539 109.103 90.4948 108.81 90.7812 108.68C91.25 108.458 91.8424 108.361 92.5586 108.387C93.6914 108.426 94.2773 108.777 94.3164 109.441C94.3424 109.845 94.2318 110.294 93.9844 110.789C93.75 111.271 93.5547 111.674 93.3984 112L92.6367 113.562C91.1133 116.648 90.3516 119.155 90.3516 121.082C90.3516 122.423 90.7161 123.341 91.4453 123.836C91.6536 123.992 91.9727 124.07 92.4023 124.07C92.832 124.07 93.3398 123.921 93.9258 123.621C94.5117 123.309 95.0716 122.885 95.6055 122.352C96.1393 121.818 96.6341 121.199 97.0898 120.496C97.5586 119.78 97.9622 119.018 98.3008 118.211C99.0169 116.505 99.375 114.995 99.375 113.68C99.375 111.427 98.9518 109.767 98.1055 108.699C97.819 108.361 97.9036 107.964 98.3594 107.508C98.8411 107.026 99.5964 106.785 100.625 106.785C101.888 106.785 102.747 107.495 103.203 108.914C103.385 109.448 103.477 110.249 103.477 111.316C103.477 112.384 103.288 113.576 102.91 114.891C102.533 116.193 102.018 117.449 101.367 118.66C100.729 119.858 99.987 120.978 99.1406 122.02C98.3073 123.061 97.4284 123.966 96.5039 124.734C94.5247 126.375 92.6888 127.195 90.9961 127.195C88.0924 127.195 86.6406 125.32 86.6406 121.57C86.6406 120.711 86.7188 119.871 86.875 119.051C85.3385 121.29 83.6784 123.198 81.8945 124.773Z" />
<path d="M105.664 120.164C105.716 119.031 105.905 117.951 106.23 116.922C106.556 115.88 106.992 114.878 107.539 113.914C108.086 112.938 108.724 112.02 109.453 111.16C110.195 110.288 110.996 109.526 111.855 108.875C113.717 107.482 115.599 106.785 117.5 106.785C119.727 106.785 121.211 107.703 121.953 109.539C122.214 110.164 122.337 110.906 122.324 111.766C122.311 112.612 122.148 113.4 121.836 114.129C121.523 114.845 121.087 115.503 120.527 116.102C119.98 116.688 119.323 117.215 118.555 117.684C117.799 118.152 116.973 118.549 116.074 118.875C114.225 119.526 112.246 119.865 110.137 119.891C110.085 120.073 110.052 120.346 110.039 120.711C110.026 121.076 110.065 121.486 110.156 121.941C110.247 122.384 110.404 122.781 110.625 123.133C111.094 123.914 111.771 124.305 112.656 124.305C114.167 124.305 115.638 123.862 117.07 122.977C117.578 122.677 117.988 122.371 118.301 122.059C118.626 121.733 118.906 121.57 119.141 121.57C119.375 121.57 119.577 121.714 119.746 122C119.928 122.273 120.02 122.586 120.02 122.938C120.02 123.628 119.824 124.227 119.434 124.734C117.793 126.375 115.352 127.195 112.109 127.195C110.195 127.195 108.659 126.622 107.5 125.477C106.198 124.174 105.586 122.404 105.664 120.164ZM117.07 109.383C115.703 109.383 114.388 110.32 113.125 112.195C112.057 113.81 111.198 115.724 110.547 117.938C112.721 117.716 114.609 116.857 116.211 115.359C117.682 113.953 118.418 112.605 118.418 111.316C118.418 110.027 117.969 109.383 117.07 109.383Z" />
<path d="M124.512 121.453C124.512 120.698 124.564 119.975 124.668 119.285C124.785 118.595 124.928 117.898 125.098 117.195C125.28 116.492 125.482 115.789 125.703 115.086L127.891 108.406C129.622 102.99 130.71 98.7578 131.152 95.7109C131.296 94.6172 131.829 94.0703 132.754 94.0703C133.301 94.0703 133.763 94.2135 134.141 94.5C134.831 95.0599 135.163 95.6589 135.137 96.2969C135.124 96.9219 135.033 97.625 134.863 98.4062C134.707 99.1745 134.499 100.014 134.238 100.926C133.991 101.837 133.704 102.794 133.379 103.797C132.507 106.375 131.855 108.237 131.426 109.383L130.312 112.293C131.445 110.535 132.37 109.331 133.086 108.68C134.518 107.417 136.009 106.785 137.559 106.785C139.837 106.785 141.354 107.977 142.109 110.359C142.357 111.18 142.48 112.202 142.48 113.426C142.48 114.65 142.298 115.867 141.934 117.078C141.582 118.276 141.1 119.396 140.488 120.438C139.876 121.466 139.16 122.397 138.34 123.23C137.533 124.064 136.68 124.773 135.781 125.359C133.88 126.583 132.038 127.195 130.254 127.195C128.457 127.195 127.044 126.648 126.016 125.555C125.013 124.461 124.512 123.094 124.512 121.453ZM129.98 124.656C131.204 124.656 132.448 124.109 133.711 123.016C135.638 121.349 136.934 118.966 137.598 115.867C137.819 114.852 137.93 113.797 137.93 112.703C137.93 111.596 137.806 110.822 137.559 110.379C137.311 109.936 136.927 109.715 136.406 109.715C135.898 109.715 135.365 109.923 134.805 110.34C134.245 110.757 133.659 111.31 133.047 112C132.435 112.677 131.829 113.465 131.23 114.363C130.632 115.249 130.091 116.167 129.609 117.117C128.555 119.214 128.027 120.997 128.027 122.469C128.027 123.927 128.678 124.656 129.98 124.656Z" />
<path d="M144.453 123.562C144.453 123.159 144.538 122.788 144.707 122.449C144.889 122.098 145.111 121.805 145.371 121.57C145.918 121.062 146.491 120.809 147.09 120.809C147.611 120.809 147.871 121.076 147.871 121.609C147.871 122.964 148.32 123.908 149.219 124.441C149.544 124.637 149.883 124.734 150.234 124.734C150.586 124.734 150.885 124.695 151.133 124.617C151.38 124.539 151.608 124.415 151.816 124.246C152.285 123.868 152.52 123.419 152.52 122.898C152.52 122.378 152.402 121.902 152.168 121.473C151.934 121.03 151.641 120.568 151.289 120.086L150.176 118.523C148.613 116.44 147.832 114.52 147.832 112.762C147.832 111.303 148.451 109.982 149.688 108.797C151.094 107.456 152.897 106.785 155.098 106.785C157.025 106.785 158.529 107.26 159.609 108.211C160.495 108.979 160.938 109.858 160.938 110.848C160.938 111.876 160.547 112.697 159.766 113.309C159.062 113.855 158.359 114.057 157.656 113.914C157.344 113.849 157.103 113.693 156.934 113.445C156.764 113.185 156.732 112.892 156.836 112.566C156.94 112.241 156.992 111.902 156.992 111.551C156.992 111.199 156.927 110.874 156.797 110.574C156.667 110.275 156.491 110.021 156.27 109.812C155.814 109.383 155.332 109.168 154.824 109.168C154.329 109.168 153.919 109.227 153.594 109.344C153.268 109.448 152.982 109.604 152.734 109.812C152.227 110.281 151.973 110.861 151.973 111.551C151.973 112.228 152.09 112.814 152.324 113.309C152.559 113.803 152.845 114.298 153.184 114.793C153.535 115.288 153.913 115.789 154.316 116.297C154.72 116.805 155.091 117.339 155.43 117.898C156.25 119.214 156.66 120.372 156.66 121.375C156.66 122.365 156.452 123.198 156.035 123.875C155.618 124.539 155.078 125.112 154.414 125.594C152.995 126.648 151.406 127.176 149.648 127.176C147.969 127.176 146.641 126.772 145.664 125.965C144.857 125.288 144.453 124.487 144.453 123.562Z" />
<path d="M176.445 110.477C175.729 110.477 174.447 111.57 172.598 113.758L170.977 115.75L167.852 119.832C167.096 121.264 166.504 122.456 166.074 123.406L165.02 125.672C164.746 126.232 164.505 126.629 164.297 126.863C164.102 127.085 163.828 127.195 163.477 127.195C163.138 127.195 162.806 127.13 162.48 127C162.168 126.883 161.895 126.727 161.66 126.531C161.165 126.115 160.918 125.659 160.918 125.164C160.918 124.969 161.055 124.585 161.328 124.012L162.109 122.43C164.544 117.417 166.751 111.062 168.73 103.367C169.46 100.529 169.987 97.9766 170.312 95.7109C170.456 94.6172 170.99 94.0703 171.914 94.0703C172.513 94.0703 173.008 94.2135 173.398 94.5C174.154 95.0599 174.518 95.6589 174.492 96.2969C174.466 96.9349 174.375 97.651 174.219 98.4453C174.062 99.2396 173.861 100.105 173.613 101.043C173.366 101.967 173.086 102.944 172.773 103.973C171.914 106.59 171.276 108.478 170.859 109.637C169.583 113.139 168.796 115.19 168.496 115.789C168.691 115.555 168.945 115.236 169.258 114.832C171.628 111.72 173.092 109.865 173.652 109.266C174.212 108.654 174.688 108.185 175.078 107.859C175.898 107.143 176.94 106.785 178.203 106.785C179.232 106.785 180.059 107.13 180.684 107.82C181.27 108.484 181.562 109.214 181.562 110.008C181.562 110.789 181.471 111.499 181.289 112.137C181.12 112.762 180.898 113.4 180.625 114.051C180.352 114.702 180.052 115.372 179.727 116.062L178.75 118.113C177.839 120.184 177.383 121.72 177.383 122.723C177.383 123.426 177.669 123.777 178.242 123.777C178.789 123.777 179.284 123.66 179.727 123.426C180.182 123.191 180.475 123.074 180.605 123.074C180.879 123.074 181.016 123.211 181.016 123.484C181.016 124.643 180.43 125.613 179.258 126.395C178.451 126.928 177.715 127.195 177.051 127.195C176.387 127.195 175.833 127.13 175.391 127C174.961 126.857 174.577 126.629 174.238 126.316C173.47 125.613 173.086 124.578 173.086 123.211C173.086 121.74 173.568 119.891 174.531 117.664L176.641 113.172C177.044 112.339 177.246 111.681 177.246 111.199C177.246 110.717 176.979 110.477 176.445 110.477Z" />
<path d="M186.387 125.672C185.84 125.151 185.41 124.493 185.098 123.699C184.785 122.892 184.622 121.941 184.609 120.848C184.596 119.754 184.727 118.647 185 117.527C185.286 116.408 185.684 115.327 186.191 114.285C186.712 113.243 187.331 112.267 188.047 111.355C188.776 110.444 189.577 109.65 190.449 108.973C192.35 107.514 194.323 106.785 196.367 106.785C199.049 106.785 200.866 107.964 201.816 110.32C202.493 112.026 202.533 114.09 201.934 116.512C201.387 118.738 200.384 120.783 198.926 122.645C197.48 124.507 195.775 125.828 193.809 126.609C192.819 127 191.842 127.195 190.879 127.195C189.928 127.195 189.076 127.072 188.32 126.824C187.578 126.577 186.934 126.193 186.387 125.672ZM190.117 116.199C189.727 117.163 189.414 118.152 189.18 119.168C188.958 120.184 188.854 121.147 188.867 122.059C188.88 122.957 189.017 123.667 189.277 124.188C189.551 124.695 189.987 124.949 190.586 124.949C191.185 124.949 191.771 124.747 192.344 124.344C192.93 123.927 193.496 123.38 194.043 122.703C194.59 122.026 195.104 121.245 195.586 120.359C196.068 119.474 196.491 118.549 196.855 117.586C197.65 115.49 198.034 113.628 198.008 112C198.008 110.568 197.715 109.656 197.129 109.266C196.895 109.109 196.562 109.031 196.133 109.031C195.716 109.031 195.234 109.227 194.688 109.617C194.141 109.995 193.594 110.509 193.047 111.16C192.5 111.811 191.973 112.573 191.465 113.445C190.957 114.318 190.508 115.236 190.117 116.199Z" />
<path d="M208.652 125.145C208.626 125.34 208.34 126.368 207.793 128.23C207.259 130.092 206.81 131.57 206.445 132.664C205.625 135.112 204.948 136.635 204.414 137.234C203.984 137.703 203.464 137.938 202.852 137.938C202.109 137.938 201.543 137.573 201.152 136.844C201.035 136.635 200.977 136.401 200.977 136.141C200.977 135.893 201.172 135.346 201.562 134.5C202.591 132.352 203.965 128.12 205.684 121.805C206.374 119.305 206.829 117.605 207.051 116.707L207.676 114.266C208.079 112.651 208.314 111.557 208.379 110.984C208.457 110.398 208.424 109.988 208.281 109.754C208.138 109.507 207.975 109.324 207.793 109.207C207.611 109.077 207.441 108.966 207.285 108.875C207.129 108.784 207.064 108.621 207.09 108.387C207.116 108.139 207.22 107.918 207.402 107.723C207.598 107.514 207.839 107.339 208.125 107.195C208.711 106.922 209.297 106.785 209.883 106.785C210.482 106.785 210.951 106.857 211.289 107C211.628 107.143 211.908 107.339 212.129 107.586C212.598 108.094 212.806 108.589 212.754 109.07C212.624 110.073 212.48 110.932 212.324 111.648C214.603 108.406 216.966 106.785 219.414 106.785C221.641 106.785 223.132 107.938 223.887 110.242C224.147 111.049 224.277 112.033 224.277 113.191C224.277 114.35 224.102 115.516 223.75 116.688C223.398 117.846 222.923 118.947 222.324 119.988C221.725 121.03 221.029 121.993 220.234 122.879C219.44 123.751 218.6 124.513 217.715 125.164C215.84 126.518 214.069 127.195 212.402 127.195C210.736 127.195 209.486 126.512 208.652 125.145ZM211.66 116.824C211.191 117.736 210.807 118.647 210.508 119.559C210.221 120.47 210.078 121.303 210.078 122.059C210.078 122.814 210.241 123.439 210.566 123.934C210.892 124.415 211.374 124.656 212.012 124.656C212.65 124.656 213.281 124.487 213.906 124.148C214.544 123.797 215.156 123.328 215.742 122.742C216.341 122.156 216.895 121.473 217.402 120.691C217.923 119.897 218.372 119.057 218.75 118.172C219.57 116.245 219.98 114.415 219.98 112.684C219.98 111.746 219.857 111.017 219.609 110.496C219.362 109.975 218.978 109.715 218.457 109.715C217.949 109.715 217.415 109.917 216.855 110.32C216.296 110.711 215.71 111.238 215.098 111.902C214.486 112.553 213.88 113.309 213.281 114.168C212.682 115.014 212.142 115.9 211.66 116.824Z" />
<path d="M241.309 125.672C240.762 125.151 240.332 124.493 240.02 123.699C239.707 122.892 239.544 121.941 239.531 120.848C239.518 119.754 239.648 118.647 239.922 117.527C240.208 116.408 240.605 115.327 241.113 114.285C241.634 113.243 242.253 112.267 242.969 111.355C243.698 110.444 244.499 109.65 245.371 108.973C247.272 107.514 249.245 106.785 251.289 106.785C253.971 106.785 255.788 107.964 256.738 110.32C257.415 112.026 257.454 114.09 256.855 116.512C256.309 118.738 255.306 120.783 253.848 122.645C252.402 124.507 250.697 125.828 248.73 126.609C247.741 127 246.764 127.195 245.801 127.195C244.85 127.195 243.997 127.072 243.242 126.824C242.5 126.577 241.855 126.193 241.309 125.672ZM245.039 116.199C244.648 117.163 244.336 118.152 244.102 119.168C243.88 120.184 243.776 121.147 243.789 122.059C243.802 122.957 243.939 123.667 244.199 124.188C244.473 124.695 244.909 124.949 245.508 124.949C246.107 124.949 246.693 124.747 247.266 124.344C247.852 123.927 248.418 123.38 248.965 122.703C249.512 122.026 250.026 121.245 250.508 120.359C250.99 119.474 251.413 118.549 251.777 117.586C252.572 115.49 252.956 113.628 252.93 112C252.93 110.568 252.637 109.656 252.051 109.266C251.816 109.109 251.484 109.031 251.055 109.031C250.638 109.031 250.156 109.227 249.609 109.617C249.062 109.995 248.516 110.509 247.969 111.16C247.422 111.811 246.895 112.573 246.387 113.445C245.879 114.318 245.43 115.236 245.039 116.199Z" />
<path d="M257.871 131.297C257.871 131.023 258.079 130.477 258.496 129.656C258.9 128.849 259.342 127.814 259.824 126.551C260.319 125.288 260.788 123.973 261.23 122.605C261.673 121.238 262.122 119.773 262.578 118.211L264.102 113.055L262.07 113.602C261.562 113.602 261.146 113.335 260.82 112.801C260.742 112.658 260.703 112.488 260.703 112.293C260.703 112.098 260.859 111.87 261.172 111.609C261.484 111.336 261.868 111.082 262.324 110.848C263.236 110.379 264.173 110.021 265.137 109.773L265.312 109.227C265.664 108.133 265.996 107 266.309 105.828C266.634 104.643 266.973 103.491 267.324 102.371C267.689 101.251 268.099 100.19 268.555 99.1875C269.01 98.1719 269.544 97.2865 270.156 96.5312C271.51 94.8906 273.21 94.0703 275.254 94.0703C276.764 94.0703 277.962 94.474 278.848 95.2812C279.733 96.0885 280.176 97.1823 280.176 98.5625C280.176 99.9948 279.766 101.238 278.945 102.293C278.255 103.165 277.487 103.602 276.641 103.602C275.586 103.602 274.87 103.12 274.492 102.156C274.388 101.909 274.336 101.701 274.336 101.531C274.336 101.245 274.531 100.984 274.922 100.75C275.638 100.203 276.139 99.474 276.426 98.5625C276.517 98.276 276.562 97.9961 276.562 97.7227C276.562 96.6549 276.146 96.1211 275.312 96.1211C274.167 96.1211 273.112 97.4167 272.148 100.008C271.862 100.802 271.576 101.674 271.289 102.625L269.453 108.855C270.638 108.673 271.497 108.582 272.031 108.582C272.578 108.582 273.06 108.647 273.477 108.777C273.893 108.895 274.271 109.064 274.609 109.285C275.378 109.793 275.762 110.418 275.762 111.16C275.762 111.902 275.397 112.273 274.668 112.273L272.188 112.176C270.833 112.176 269.583 112.234 268.438 112.352L266.836 118.016C265.781 121.857 264.922 124.65 264.258 126.395C263.607 128.139 262.969 129.617 262.344 130.828C261.758 131.935 260.866 132.488 259.668 132.488C258.47 132.488 257.871 132.091 257.871 131.297Z" />
<path d="M288.047 120.262C288.073 119.129 288.249 118.003 288.574 116.883C288.913 115.75 289.355 114.682 289.902 113.68C290.462 112.677 291.12 111.753 291.875 110.906C292.643 110.06 293.477 109.331 294.375 108.719C296.25 107.43 298.223 106.785 300.293 106.785C302.428 106.785 303.88 107.638 304.648 109.344C304.922 109.956 305.046 110.652 305.02 111.434C305.007 112.202 304.883 112.911 304.648 113.562C304.414 114.201 304.121 114.773 303.77 115.281C302.975 116.427 302.174 117 301.367 117C300.469 117 299.805 116.753 299.375 116.258C298.997 115.828 298.88 115.327 299.023 114.754C299.062 114.585 299.18 114.435 299.375 114.305C299.57 114.161 299.818 113.94 300.117 113.641C300.964 112.755 301.406 111.72 301.445 110.535C301.471 109.728 300.977 109.324 299.961 109.324C298.867 109.324 297.721 109.936 296.523 111.16C294.779 112.944 293.548 115.229 292.832 118.016C292.207 120.438 292.324 122.208 293.184 123.328C293.691 123.979 294.382 124.305 295.254 124.305C296.725 124.305 298.145 123.784 299.512 122.742C299.928 122.417 300.267 122.085 300.527 121.746C300.788 121.408 301.029 121.238 301.25 121.238C301.471 121.238 301.654 121.349 301.797 121.57C301.953 121.779 302.031 122.052 302.031 122.391C302.031 123.159 301.686 123.914 300.996 124.656C299.225 126.349 297.096 127.195 294.609 127.195C292.487 127.195 290.846 126.59 289.688 125.379C288.542 124.181 287.995 122.475 288.047 120.262Z" />
<path d="M308.574 125.672C308.027 125.151 307.598 124.493 307.285 123.699C306.973 122.892 306.81 121.941 306.797 120.848C306.784 119.754 306.914 118.647 307.188 117.527C307.474 116.408 307.871 115.327 308.379 114.285C308.9 113.243 309.518 112.267 310.234 111.355C310.964 110.444 311.764 109.65 312.637 108.973C314.538 107.514 316.51 106.785 318.555 106.785C321.237 106.785 323.053 107.964 324.004 110.32C324.681 112.026 324.72 114.09 324.121 116.512C323.574 118.738 322.572 120.783 321.113 122.645C319.668 124.507 317.962 125.828 315.996 126.609C315.007 127 314.03 127.195 313.066 127.195C312.116 127.195 311.263 127.072 310.508 126.824C309.766 126.577 309.121 126.193 308.574 125.672ZM312.305 116.199C311.914 117.163 311.602 118.152 311.367 119.168C311.146 120.184 311.042 121.147 311.055 122.059C311.068 122.957 311.204 123.667 311.465 124.188C311.738 124.695 312.174 124.949 312.773 124.949C313.372 124.949 313.958 124.747 314.531 124.344C315.117 123.927 315.684 123.38 316.23 122.703C316.777 122.026 317.292 121.245 317.773 120.359C318.255 119.474 318.678 118.549 319.043 117.586C319.837 115.49 320.221 113.628 320.195 112C320.195 110.568 319.902 109.656 319.316 109.266C319.082 109.109 318.75 109.031 318.32 109.031C317.904 109.031 317.422 109.227 316.875 109.617C316.328 109.995 315.781 110.509 315.234 111.16C314.688 111.811 314.16 112.573 313.652 113.445C313.145 114.318 312.695 115.236 312.305 116.199Z" />
<path d="M328.301 126.219C327.975 125.88 327.708 125.451 327.5 124.93C327.305 124.396 327.207 123.784 327.207 123.094C327.207 122.391 327.363 121.453 327.676 120.281C328.001 119.109 328.411 117.775 328.906 116.277L330.547 111.414C332.878 104.643 334.225 99.4089 334.59 95.7109C334.707 94.6172 335.241 94.0703 336.191 94.0703C336.79 94.0703 337.285 94.2135 337.676 94.5C338.431 95.0729 338.796 95.7109 338.77 96.4141C338.743 97.1172 338.62 97.9766 338.398 98.9922C338.177 99.9948 337.891 101.095 337.539 102.293C337.188 103.478 336.784 104.734 336.328 106.062L333.633 113.992C332.083 118.497 331.309 121.408 331.309 122.723C331.309 123.426 331.595 123.777 332.168 123.777C332.715 123.777 333.21 123.66 333.652 123.426C334.108 123.191 334.401 123.074 334.531 123.074C334.805 123.074 334.941 123.211 334.941 123.484C334.941 124.643 334.349 125.613 333.164 126.395C332.37 126.928 331.641 127.195 330.977 127.195C330.326 127.195 329.798 127.117 329.395 126.961C328.991 126.805 328.626 126.557 328.301 126.219Z" />
<path d="M340.332 125.672C339.785 125.151 339.355 124.493 339.043 123.699C338.73 122.892 338.568 121.941 338.555 120.848C338.542 119.754 338.672 118.647 338.945 117.527C339.232 116.408 339.629 115.327 340.137 114.285C340.658 113.243 341.276 112.267 341.992 111.355C342.721 110.444 343.522 109.65 344.395 108.973C346.296 107.514 348.268 106.785 350.312 106.785C352.995 106.785 354.811 107.964 355.762 110.32C356.439 112.026 356.478 114.09 355.879 116.512C355.332 118.738 354.329 120.783 352.871 122.645C351.426 124.507 349.72 125.828 347.754 126.609C346.764 127 345.788 127.195 344.824 127.195C343.874 127.195 343.021 127.072 342.266 126.824C341.523 126.577 340.879 126.193 340.332 125.672ZM344.062 116.199C343.672 117.163 343.359 118.152 343.125 119.168C342.904 120.184 342.799 121.147 342.812 122.059C342.826 122.957 342.962 123.667 343.223 124.188C343.496 124.695 343.932 124.949 344.531 124.949C345.13 124.949 345.716 124.747 346.289 124.344C346.875 123.927 347.441 123.38 347.988 122.703C348.535 122.026 349.049 121.245 349.531 120.359C350.013 119.474 350.436 118.549 350.801 117.586C351.595 115.49 351.979 113.628 351.953 112C351.953 110.568 351.66 109.656 351.074 109.266C350.84 109.109 350.508 109.031 350.078 109.031C349.661 109.031 349.18 109.227 348.633 109.617C348.086 109.995 347.539 110.509 346.992 111.16C346.445 111.811 345.918 112.573 345.41 113.445C344.902 114.318 344.453 115.236 344.062 116.199Z" />
<path d="M359.18 126.531C358.919 126.336 358.711 126.121 358.555 125.887C358.398 125.639 358.314 125.431 358.301 125.262C358.288 125.079 358.32 124.865 358.398 124.617C358.49 124.357 358.607 124.044 358.75 123.68C361.406 117.143 362.734 112.755 362.734 110.516C362.695 109.891 362.48 109.448 362.09 109.188L361.699 108.914C361.582 108.823 361.517 108.667 361.504 108.445C361.504 108.211 361.589 107.99 361.758 107.781C361.927 107.573 362.148 107.391 362.422 107.234C362.982 106.935 363.555 106.785 364.141 106.785C364.74 106.785 365.202 106.85 365.527 106.98C365.866 107.111 366.152 107.286 366.387 107.508C366.882 107.977 367.129 108.471 367.129 108.992C367.142 109.513 367.083 110.04 366.953 110.574C366.836 111.108 366.693 111.635 366.523 112.156C366.354 112.664 366.185 113.152 366.016 113.621C365.846 114.077 365.736 114.415 365.684 114.637C365.579 115.092 365.54 115.379 365.566 115.496C365.879 115.223 366.068 114.956 366.133 114.695L366.895 113.25C368.587 110.203 370.241 108.185 371.855 107.195C372.324 106.922 372.884 106.785 373.535 106.785C374.199 106.785 374.733 107.02 375.137 107.488C375.54 107.944 375.749 108.452 375.762 109.012C375.788 109.572 375.749 110.04 375.645 110.418C375.553 110.783 375.41 111.128 375.215 111.453C374.785 112.182 374.264 112.547 373.652 112.547C373.483 112.547 373.327 112.488 373.184 112.371L372.754 112C372.324 111.622 371.908 111.434 371.504 111.434C371.113 111.434 370.632 111.694 370.059 112.215C369.499 112.736 368.913 113.406 368.301 114.227C366.243 116.948 364.564 119.995 363.262 123.367L362.402 125.633C362.181 126.193 361.986 126.596 361.816 126.844C361.647 127.078 361.393 127.195 361.055 127.195C360.729 127.195 360.397 127.13 360.059 127C359.733 126.883 359.44 126.727 359.18 126.531Z" />
<path d="M374.492 123.562C374.492 123.159 374.577 122.788 374.746 122.449C374.928 122.098 375.15 121.805 375.41 121.57C375.957 121.062 376.53 120.809 377.129 120.809C377.65 120.809 377.91 121.076 377.91 121.609C377.91 122.964 378.359 123.908 379.258 124.441C379.583 124.637 379.922 124.734 380.273 124.734C380.625 124.734 380.924 124.695 381.172 124.617C381.419 124.539 381.647 124.415 381.855 124.246C382.324 123.868 382.559 123.419 382.559 122.898C382.559 122.378 382.441 121.902 382.207 121.473C381.973 121.03 381.68 120.568 381.328 120.086L380.215 118.523C378.652 116.44 377.871 114.52 377.871 112.762C377.871 111.303 378.49 109.982 379.727 108.797C381.133 107.456 382.936 106.785 385.137 106.785C387.064 106.785 388.568 107.26 389.648 108.211C390.534 108.979 390.977 109.858 390.977 110.848C390.977 111.876 390.586 112.697 389.805 113.309C389.102 113.855 388.398 114.057 387.695 113.914C387.383 113.849 387.142 113.693 386.973 113.445C386.803 113.185 386.771 112.892 386.875 112.566C386.979 112.241 387.031 111.902 387.031 111.551C387.031 111.199 386.966 110.874 386.836 110.574C386.706 110.275 386.53 110.021 386.309 109.812C385.853 109.383 385.371 109.168 384.863 109.168C384.368 109.168 383.958 109.227 383.633 109.344C383.307 109.448 383.021 109.604 382.773 109.812C382.266 110.281 382.012 110.861 382.012 111.551C382.012 112.228 382.129 112.814 382.363 113.309C382.598 113.803 382.884 114.298 383.223 114.793C383.574 115.288 383.952 115.789 384.355 116.297C384.759 116.805 385.13 117.339 385.469 117.898C386.289 119.214 386.699 120.372 386.699 121.375C386.699 122.365 386.491 123.198 386.074 123.875C385.658 124.539 385.117 125.112 384.453 125.594C383.034 126.648 381.445 127.176 379.688 127.176C378.008 127.176 376.68 126.772 375.703 125.965C374.896 125.288 374.492 124.487 374.492 123.562Z" />
</svg>
