<svg width="118" height="23" viewBox="0 0 118 23" fill="none" xmlns="http://www.w3.org/2000/svg">
<path d="M10.793 3.65039C10.6042 3.78711 10.3828 3.89128 10.1289 3.96289C9.88151 4.02799 9.54622 4.06055 9.12305 4.06055C8.70638 4.06055 8.16276 4.03125 7.49219 3.97266C7.33594 4.39583 7.17643 4.89062 7.01367 5.45703L5.89062 9.28516C4.50391 13.8685 3.02604 16.4401 1.45703 17C1.34635 17.0456 1.20312 17.0684 1.02734 17.0684C0.858073 17.0684 0.718099 17.0456 0.607422 17C0.503255 16.9609 0.415365 16.9089 0.34375 16.8438C0.200521 16.7266 0.128906 16.6094 0.128906 16.4922C0.128906 16.375 0.158203 16.2969 0.216797 16.2578L0.470703 16.1016C1.4082 15.4896 2.26758 13.862 3.04883 11.2188L3.75195 8.83594C4.38346 6.69401 4.97266 5.01107 5.51953 3.78711C5.00521 3.74154 4.61458 3.71875 4.34766 3.71875C3.57943 3.71875 3.02604 3.82617 2.6875 4.04102C2.35547 4.25586 2.12109 4.49023 1.98438 4.74414C1.85417 4.99154 1.78581 5.16406 1.7793 5.26172C1.75977 5.44401 1.70117 5.5612 1.60352 5.61328C1.50586 5.65885 1.38542 5.68164 1.24219 5.68164C1.10547 5.68164 0.96224 5.63281 0.8125 5.53516C0.66276 5.43099 0.539062 5.30078 0.441406 5.14453C0.233073 4.82552 0.151693 4.46745 0.197266 4.07031C0.242839 3.66667 0.373047 3.32161 0.587891 3.03516C0.809245 2.74219 1.06966 2.50456 1.36914 2.32227C1.92253 1.98372 2.50521 1.81445 3.11719 1.81445C3.73568 1.81445 4.31836 1.84701 4.86523 1.91211C5.41862 1.9707 5.96875 2.03906 6.51562 2.11719C7.96745 2.3125 8.89193 2.41016 9.28906 2.41016C9.6862 2.41016 9.97917 2.38737 10.168 2.3418C10.3633 2.29622 10.5293 2.22786 10.666 2.13672C10.8027 2.04557 10.8971 1.98698 10.9492 1.96094C11.0078 1.92839 11.099 1.91211 11.2227 1.91211C11.418 1.91211 11.5026 2.06185 11.4766 2.36133C11.4505 2.6543 11.3789 2.9082 11.2617 3.12305C11.1445 3.33138 10.9883 3.50716 10.793 3.65039ZM14.2988 4.60742C14.1556 4.75716 13.9928 4.88086 13.8105 4.97852C13.6283 5.06966 13.4362 5.12826 13.2344 5.1543C13.0326 5.17383 12.8405 5.14128 12.6582 5.05664C12.4824 4.97201 12.3294 4.85156 12.1992 4.69531C11.9193 4.36979 11.7793 4.04102 11.7793 3.70898C11.7793 3.37695 11.8314 3.12956 11.9355 2.9668C12.0462 2.79753 12.1829 2.66081 12.3457 2.55664C12.6582 2.35482 12.9512 2.25391 13.2246 2.25391C13.5046 2.25391 13.7194 2.27344 13.8691 2.3125C14.0254 2.35156 14.1686 2.41667 14.2988 2.50781C14.6178 2.72266 14.7773 2.98633 14.7773 3.29883C14.7773 3.60482 14.7318 3.86198 14.6406 4.07031C14.556 4.27214 14.4421 4.45117 14.2988 4.60742ZM12.2969 15.1738C12.4661 15.1738 12.5508 15.2845 12.5508 15.5059C12.5508 15.7988 12.4173 16.1016 12.1504 16.4141C11.7598 16.8698 11.2357 17.0977 10.5781 17.0977C9.82292 17.0977 9.30534 16.7917 9.02539 16.1797C8.92122 15.9648 8.86914 15.7044 8.86914 15.3984C8.86914 15.0924 8.92122 14.7539 9.02539 14.3828C9.13607 14.0052 9.26953 13.6113 9.42578 13.2012C9.58854 12.7845 9.76432 12.3646 9.95312 11.9414L10.4707 10.7109C10.8483 9.79297 11.0371 9.1875 11.0371 8.89453C11.0371 8.60156 11.0046 8.40951 10.9395 8.31836C10.8809 8.2207 10.8158 8.14583 10.7441 8.09375L10.5488 7.95703C10.4837 7.91146 10.4512 7.83333 10.4512 7.72266C10.4512 7.60547 10.4935 7.49479 10.5781 7.39062C10.6693 7.28646 10.7865 7.19531 10.9297 7.11719C11.2227 6.96745 11.5645 6.89258 11.9551 6.89258C12.9121 6.89258 13.3906 7.14323 13.3906 7.64453C13.3906 8.23047 13.2376 8.90104 12.9316 9.65625C12.6257 10.4049 12.3652 11.0104 12.1504 11.4727L11.5645 12.8203C11.1348 13.8099 10.9199 14.5228 10.9199 14.959C10.9199 15.2454 11.0632 15.3887 11.3496 15.3887C11.6296 15.3887 11.8411 15.3529 11.9844 15.2812C12.1276 15.2096 12.2318 15.1738 12.2969 15.1738ZM21.7891 8.73828C21.5872 8.73828 21.3008 8.93359 20.9297 9.32422C20.5586 9.70833 20.2363 10.0599 19.9629 10.3789L19.1328 11.375L17.5312 13.416C17.1536 14.1322 16.8574 14.7279 16.6426 15.2031L16.1152 16.3359C15.9785 16.6159 15.8581 16.8145 15.7539 16.9316C15.6562 17.0423 15.5195 17.0977 15.3438 17.0977C15.1745 17.0977 15.0085 17.0651 14.8457 17C14.6895 16.9414 14.5527 16.8633 14.4355 16.7656C14.1882 16.5573 14.0645 16.3294 14.0645 16.082C14.0645 15.9844 14.1361 15.7923 14.2793 15.5059L14.6504 14.7148C14.7676 14.4805 14.9043 14.181 15.0605 13.8164L15.6074 12.4785C16.3757 10.5579 16.7598 9.31771 16.7598 8.75781C16.7598 8.45833 16.6621 8.23698 16.4668 8.09375L16.2715 7.95703C16.2064 7.91146 16.1738 7.83333 16.1738 7.72266C16.1738 7.60547 16.2161 7.49479 16.3008 7.39062C16.3919 7.28646 16.5091 7.19531 16.6523 7.11719C16.9453 6.96745 17.2383 6.89258 17.5312 6.89258C17.8307 6.89258 18.0618 6.92513 18.2246 6.99023C18.3874 7.05534 18.5241 7.14323 18.6348 7.25391C18.8757 7.48177 18.9961 7.7194 18.9961 7.9668C18.9961 8.21419 18.9635 8.46484 18.8984 8.71875C18.8398 8.96615 18.7617 9.22005 18.6641 9.48047C18.5729 9.73438 18.4753 9.98503 18.3711 10.2324C18.2669 10.4798 18.1725 10.6947 18.0879 10.877L17.8926 11.2969C17.8405 11.401 17.8275 11.4336 17.8535 11.3945C18.5762 10.3919 19.0514 9.7474 19.2793 9.46094L19.9629 8.64062C20.4642 8.05469 20.8581 7.66732 21.1445 7.47852C21.724 7.08789 22.1797 6.89258 22.5117 6.89258C22.8438 6.89258 23.1237 6.9349 23.3516 7.01953C23.5794 7.10417 23.778 7.22461 23.9473 7.38086C24.3053 7.71289 24.4844 8.13607 24.4844 8.65039C24.4844 9.16471 24.3672 9.70182 24.1328 10.2617C23.8984 10.8216 23.6934 11.2773 23.5176 11.6289C23.3483 11.974 23.1855 12.3255 23.0293 12.6836C22.541 13.7708 22.2969 14.5618 22.2969 15.0566C22.2969 15.278 22.4727 15.3887 22.8242 15.3887C23.0977 15.3887 23.3451 15.3301 23.5664 15.2129C23.7943 15.0957 23.9408 15.0371 24.0059 15.0371C24.1426 15.0371 24.2109 15.1055 24.2109 15.2422C24.2109 15.8216 23.9147 16.3066 23.3223 16.6973C22.9251 16.9642 22.5605 17.0977 22.2285 17.0977C21.8965 17.0977 21.6198 17.0618 21.3984 16.9902C21.1836 16.9186 20.9915 16.8047 20.8223 16.6484C20.4382 16.3034 20.2461 15.8216 20.2461 15.2031C20.2461 14.4479 20.4837 13.5039 20.959 12.3711C21.304 11.5964 21.5482 11.0658 21.6914 10.7793L22.0234 10.0859C22.2253 9.66927 22.3262 9.34049 22.3262 9.09961C22.3262 8.85872 22.1471 8.73828 21.7891 8.73828ZM31.7012 14.8711C30.7116 16.3555 29.6146 17.0977 28.4102 17.0977C27.3229 17.0977 26.5905 16.5182 26.2129 15.3594C26.0827 14.9622 26.0176 14.474 26.0176 13.8945C26.0176 13.3151 26.099 12.7357 26.2617 12.1562C26.431 11.5703 26.6589 11.0169 26.9453 10.4961C27.2318 9.97526 27.5671 9.49674 27.9512 9.06055C28.3418 8.61784 28.7585 8.23698 29.2012 7.91797C30.1257 7.23438 31.0436 6.89258 31.9551 6.89258C32.8665 6.89258 33.5176 7.31901 33.9082 8.17188C33.9863 8.08724 34.0579 8.0026 34.123 7.91797C34.1882 7.82682 34.2598 7.74219 34.3379 7.66406C34.5072 7.49479 34.6536 7.41016 34.7773 7.41016C34.9076 7.41016 35.041 7.43294 35.1777 7.47852C35.321 7.52409 35.4577 7.58594 35.5879 7.66406C35.9069 7.85286 36.0273 8.02865 35.9492 8.19141C35.5911 8.96615 35.2917 9.72786 35.0508 10.4766L33.6055 15.0859C32.4661 18.582 31.0208 20.8411 29.2695 21.8633C28.8073 22.1367 28.4069 22.293 28.0684 22.332C27.7298 22.3776 27.4857 22.3809 27.3359 22.3418C27.1862 22.3027 27.0527 22.2474 26.9355 22.1758C26.6816 22.013 26.5547 21.8665 26.5547 21.7363C26.5547 21.5085 26.7044 21.3685 27.0039 21.3164C27.3099 21.2643 27.6289 21.1406 27.9609 20.9453C28.293 20.7565 28.6087 20.5254 28.9082 20.252C30.1387 19.1126 31.0697 17.319 31.7012 14.8711ZM28.7715 11.4824C28.6022 11.9512 28.4688 12.4329 28.3711 12.9277C28.2734 13.416 28.2246 13.8164 28.2246 14.1289C28.2246 14.4414 28.2344 14.679 28.2539 14.8418C28.2734 15.0046 28.3125 15.1478 28.3711 15.2715C28.5013 15.5449 28.6934 15.6816 28.9473 15.6816C29.2012 15.6816 29.4518 15.5938 29.6992 15.418C29.9466 15.2357 30.207 14.9883 30.4805 14.6758C30.7539 14.3633 31.0273 13.9954 31.3008 13.5723C31.5742 13.1491 31.8346 12.6934 32.082 12.2051C32.6289 11.1243 33.013 10.0924 33.2344 9.10938C33.2018 8.92708 33.0911 8.74154 32.9023 8.55273C32.5312 8.19466 32.196 8.01562 31.8965 8.01562C31.597 8.01562 31.2975 8.11003 30.998 8.29883C30.6986 8.48112 30.4121 8.73177 30.1387 9.05078C29.8717 9.36328 29.6211 9.73112 29.3867 10.1543C29.1523 10.571 28.9473 11.0137 28.7715 11.4824ZM37.0039 16.6094C36.8411 16.4401 36.7077 16.2253 36.6035 15.9648C36.5059 15.6979 36.457 15.3919 36.457 15.0469C36.457 14.6953 36.5352 14.2266 36.6914 13.6406C36.8542 13.0547 37.0592 12.3874 37.3066 11.6387L38.127 9.20703C39.2923 5.82161 39.9661 3.20443 40.1484 1.35547C40.207 0.808594 40.474 0.535156 40.9492 0.535156C41.2487 0.535156 41.4961 0.606771 41.6914 0.75C42.069 1.03646 42.2513 1.35547 42.2383 1.70703C42.2253 2.05859 42.1634 2.48828 42.0527 2.99609C41.9421 3.4974 41.7988 4.04753 41.623 4.64648C41.4473 5.23893 41.2454 5.86719 41.0176 6.53125L39.6699 10.4961C38.8952 12.7487 38.5078 14.2038 38.5078 14.8613C38.5078 15.2129 38.651 15.3887 38.9375 15.3887C39.2109 15.3887 39.4583 15.3301 39.6797 15.2129C39.9076 15.0957 40.054 15.0371 40.1191 15.0371C40.2559 15.0371 40.3242 15.1055 40.3242 15.2422C40.3242 15.8216 40.028 16.3066 39.4355 16.6973C39.0384 16.9642 38.6738 17.0977 38.3418 17.0977C38.0163 17.0977 37.7526 17.0586 37.5508 16.9805C37.349 16.9023 37.1667 16.7786 37.0039 16.6094ZM47.3848 4.60742C47.2415 4.75716 47.0788 4.88086 46.8965 4.97852C46.7142 5.06966 46.5221 5.12826 46.3203 5.1543C46.1185 5.17383 45.9264 5.14128 45.7441 5.05664C45.5684 4.97201 45.4154 4.85156 45.2852 4.69531C45.0052 4.36979 44.8652 4.04102 44.8652 3.70898C44.8652 3.37695 44.9173 3.12956 45.0215 2.9668C45.1322 2.79753 45.2689 2.66081 45.4316 2.55664C45.7441 2.35482 46.0371 2.25391 46.3105 2.25391C46.5905 2.25391 46.8053 2.27344 46.9551 2.3125C47.1113 2.35156 47.2546 2.41667 47.3848 2.50781C47.7038 2.72266 47.8633 2.98633 47.8633 3.29883C47.8633 3.60482 47.8177 3.86198 47.7266 4.07031C47.6419 4.27214 47.528 4.45117 47.3848 4.60742ZM45.3828 15.1738C45.5521 15.1738 45.6367 15.2845 45.6367 15.5059C45.6367 15.7988 45.5033 16.1016 45.2363 16.4141C44.8457 16.8698 44.3216 17.0977 43.6641 17.0977C42.9089 17.0977 42.3913 16.7917 42.1113 16.1797C42.0072 15.9648 41.9551 15.7044 41.9551 15.3984C41.9551 15.0924 42.0072 14.7539 42.1113 14.3828C42.222 14.0052 42.3555 13.6113 42.5117 13.2012C42.6745 12.7845 42.8503 12.3646 43.0391 11.9414L43.5566 10.7109C43.9342 9.79297 44.123 9.1875 44.123 8.89453C44.123 8.60156 44.0905 8.40951 44.0254 8.31836C43.9668 8.2207 43.9017 8.14583 43.8301 8.09375L43.6348 7.95703C43.5697 7.91146 43.5371 7.83333 43.5371 7.72266C43.5371 7.60547 43.5794 7.49479 43.6641 7.39062C43.7552 7.28646 43.8724 7.19531 44.0156 7.11719C44.3086 6.96745 44.6504 6.89258 45.041 6.89258C45.998 6.89258 46.4766 7.14323 46.4766 7.64453C46.4766 8.23047 46.3236 8.90104 46.0176 9.65625C45.7116 10.4049 45.4512 11.0104 45.2363 11.4727L44.6504 12.8203C44.2207 13.8099 44.0059 14.5228 44.0059 14.959C44.0059 15.2454 44.1491 15.3887 44.4355 15.3887C44.7155 15.3887 44.9271 15.3529 45.0703 15.2812C45.2135 15.2096 45.3177 15.1738 45.3828 15.1738ZM54.875 8.73828C54.6732 8.73828 54.3867 8.93359 54.0156 9.32422C53.6445 9.70833 53.3223 10.0599 53.0488 10.3789L52.2188 11.375L50.6172 13.416C50.2396 14.1322 49.9434 14.7279 49.7285 15.2031L49.2012 16.3359C49.0645 16.6159 48.944 16.8145 48.8398 16.9316C48.7422 17.0423 48.6055 17.0977 48.4297 17.0977C48.2604 17.0977 48.0944 17.0651 47.9316 17C47.7754 16.9414 47.6387 16.8633 47.5215 16.7656C47.2741 16.5573 47.1504 16.3294 47.1504 16.082C47.1504 15.9844 47.222 15.7923 47.3652 15.5059L47.7363 14.7148C47.8535 14.4805 47.9902 14.181 48.1465 13.8164L48.6934 12.4785C49.4616 10.5579 49.8457 9.31771 49.8457 8.75781C49.8457 8.45833 49.748 8.23698 49.5527 8.09375L49.3574 7.95703C49.2923 7.91146 49.2598 7.83333 49.2598 7.72266C49.2598 7.60547 49.3021 7.49479 49.3867 7.39062C49.4779 7.28646 49.5951 7.19531 49.7383 7.11719C50.0312 6.96745 50.3242 6.89258 50.6172 6.89258C50.9167 6.89258 51.1478 6.92513 51.3105 6.99023C51.4733 7.05534 51.61 7.14323 51.7207 7.25391C51.9616 7.48177 52.082 7.7194 52.082 7.9668C52.082 8.21419 52.0495 8.46484 51.9844 8.71875C51.9258 8.96615 51.8477 9.22005 51.75 9.48047C51.6589 9.73438 51.5612 9.98503 51.457 10.2324C51.3529 10.4798 51.2585 10.6947 51.1738 10.877L50.9785 11.2969C50.9264 11.401 50.9134 11.4336 50.9395 11.3945C51.6621 10.3919 52.1374 9.7474 52.3652 9.46094L53.0488 8.64062C53.5501 8.05469 53.944 7.66732 54.2305 7.47852C54.8099 7.08789 55.2656 6.89258 55.5977 6.89258C55.9297 6.89258 56.2096 6.9349 56.4375 7.01953C56.6654 7.10417 56.8639 7.22461 57.0332 7.38086C57.3913 7.71289 57.5703 8.13607 57.5703 8.65039C57.5703 9.16471 57.4531 9.70182 57.2188 10.2617C56.9844 10.8216 56.7793 11.2773 56.6035 11.6289C56.4342 11.974 56.2715 12.3255 56.1152 12.6836C55.627 13.7708 55.3828 14.5618 55.3828 15.0566C55.3828 15.278 55.5586 15.3887 55.9102 15.3887C56.1836 15.3887 56.431 15.3301 56.6523 15.2129C56.8802 15.0957 57.0267 15.0371 57.0918 15.0371C57.2285 15.0371 57.2969 15.1055 57.2969 15.2422C57.2969 15.8216 57.0007 16.3066 56.4082 16.6973C56.0111 16.9642 55.6465 17.0977 55.3145 17.0977C54.9824 17.0977 54.7057 17.0618 54.4844 16.9902C54.2695 16.9186 54.0775 16.8047 53.9082 16.6484C53.5241 16.3034 53.332 15.8216 53.332 15.2031C53.332 14.4479 53.5697 13.5039 54.0449 12.3711C54.39 11.5964 54.6341 11.0658 54.7773 10.7793L55.1094 10.0859C55.3112 9.66927 55.4121 9.34049 55.4121 9.09961C55.4121 8.85872 55.2331 8.73828 54.875 8.73828ZM64.7871 14.8711C63.7975 16.3555 62.7005 17.0977 61.4961 17.0977C60.4089 17.0977 59.6764 16.5182 59.2988 15.3594C59.1686 14.9622 59.1035 14.474 59.1035 13.8945C59.1035 13.3151 59.1849 12.7357 59.3477 12.1562C59.5169 11.5703 59.7448 11.0169 60.0312 10.4961C60.3177 9.97526 60.653 9.49674 61.0371 9.06055C61.4277 8.61784 61.8444 8.23698 62.2871 7.91797C63.2116 7.23438 64.1296 6.89258 65.041 6.89258C65.9525 6.89258 66.6035 7.31901 66.9941 8.17188C67.0723 8.08724 67.1439 8.0026 67.209 7.91797C67.2741 7.82682 67.3457 7.74219 67.4238 7.66406C67.5931 7.49479 67.7396 7.41016 67.8633 7.41016C67.9935 7.41016 68.127 7.43294 68.2637 7.47852C68.4069 7.52409 68.5436 7.58594 68.6738 7.66406C68.9928 7.85286 69.1133 8.02865 69.0352 8.19141C68.6771 8.96615 68.3776 9.72786 68.1367 10.4766L66.6914 15.0859C65.5521 18.582 64.1068 20.8411 62.3555 21.8633C61.8932 22.1367 61.4928 22.293 61.1543 22.332C60.8158 22.3776 60.5716 22.3809 60.4219 22.3418C60.2721 22.3027 60.1387 22.2474 60.0215 22.1758C59.7676 22.013 59.6406 21.8665 59.6406 21.7363C59.6406 21.5085 59.7904 21.3685 60.0898 21.3164C60.3958 21.2643 60.7148 21.1406 61.0469 20.9453C61.3789 20.7565 61.6947 20.5254 61.9941 20.252C63.2246 19.1126 64.1556 17.319 64.7871 14.8711ZM61.8574 11.4824C61.6882 11.9512 61.5547 12.4329 61.457 12.9277C61.3594 13.416 61.3105 13.8164 61.3105 14.1289C61.3105 14.4414 61.3203 14.679 61.3398 14.8418C61.3594 15.0046 61.3984 15.1478 61.457 15.2715C61.5872 15.5449 61.7793 15.6816 62.0332 15.6816C62.2871 15.6816 62.5378 15.5938 62.7852 15.418C63.0326 15.2357 63.293 14.9883 63.5664 14.6758C63.8398 14.3633 64.1133 13.9954 64.3867 13.5723C64.6602 13.1491 64.9206 12.6934 65.168 12.2051C65.7148 11.1243 66.099 10.0924 66.3203 9.10938C66.2878 8.92708 66.1771 8.74154 65.9883 8.55273C65.6172 8.19466 65.2819 8.01562 64.9824 8.01562C64.6829 8.01562 64.3835 8.11003 64.084 8.29883C63.7845 8.48112 63.498 8.73177 63.2246 9.05078C62.9577 9.36328 62.707 9.73112 62.4727 10.1543C62.2383 10.571 62.0332 11.0137 61.8574 11.4824ZM86.9648 3.65039C86.776 3.78711 86.5547 3.89128 86.3008 3.96289C86.0534 4.02799 85.7181 4.06055 85.2949 4.06055C84.8783 4.06055 84.3346 4.03125 83.6641 3.97266C83.5078 4.39583 83.3483 4.89062 83.1855 5.45703L82.0625 9.28516C80.6758 13.8685 79.1979 16.4401 77.6289 17C77.5182 17.0456 77.375 17.0684 77.1992 17.0684C77.0299 17.0684 76.89 17.0456 76.7793 17C76.6751 16.9609 76.5872 16.9089 76.5156 16.8438C76.3724 16.7266 76.3008 16.6094 76.3008 16.4922C76.3008 16.375 76.3301 16.2969 76.3887 16.2578L76.6426 16.1016C77.5801 15.4896 78.4395 13.862 79.2207 11.2188L79.9238 8.83594C80.5553 6.69401 81.1445 5.01107 81.6914 3.78711C81.1771 3.74154 80.7865 3.71875 80.5195 3.71875C79.7513 3.71875 79.1979 3.82617 78.8594 4.04102C78.5273 4.25586 78.293 4.49023 78.1562 4.74414C78.026 4.99154 77.9577 5.16406 77.9512 5.26172C77.9316 5.44401 77.873 5.5612 77.7754 5.61328C77.6777 5.65885 77.5573 5.68164 77.4141 5.68164C77.2773 5.68164 77.1341 5.63281 76.9844 5.53516C76.8346 5.43099 76.7109 5.30078 76.6133 5.14453C76.4049 4.82552 76.3236 4.46745 76.3691 4.07031C76.4147 3.66667 76.5449 3.32161 76.7598 3.03516C76.9811 2.74219 77.2415 2.50456 77.541 2.32227C78.0944 1.98372 78.6771 1.81445 79.2891 1.81445C79.9076 1.81445 80.4902 1.84701 81.0371 1.91211C81.5905 1.9707 82.1406 2.03906 82.6875 2.11719C84.1393 2.3125 85.0638 2.41016 85.4609 2.41016C85.8581 2.41016 86.151 2.38737 86.3398 2.3418C86.5352 2.29622 86.7012 2.22786 86.8379 2.13672C86.9746 2.04557 87.069 1.98698 87.1211 1.96094C87.1797 1.92839 87.2708 1.91211 87.3945 1.91211C87.5898 1.91211 87.6745 2.06185 87.6484 2.36133C87.6224 2.6543 87.5508 2.9082 87.4336 3.12305C87.3164 3.33138 87.1602 3.50716 86.9648 3.65039ZM90.4707 4.60742C90.3275 4.75716 90.1647 4.88086 89.9824 4.97852C89.8001 5.06966 89.6081 5.12826 89.4062 5.1543C89.2044 5.17383 89.0124 5.14128 88.8301 5.05664C88.6543 4.97201 88.5013 4.85156 88.3711 4.69531C88.0911 4.36979 87.9512 4.04102 87.9512 3.70898C87.9512 3.37695 88.0033 3.12956 88.1074 2.9668C88.2181 2.79753 88.3548 2.66081 88.5176 2.55664C88.8301 2.35482 89.123 2.25391 89.3965 2.25391C89.6764 2.25391 89.8913 2.27344 90.041 2.3125C90.1973 2.35156 90.3405 2.41667 90.4707 2.50781C90.7897 2.72266 90.9492 2.98633 90.9492 3.29883C90.9492 3.60482 90.9036 3.86198 90.8125 4.07031C90.7279 4.27214 90.6139 4.45117 90.4707 4.60742ZM88.4688 15.1738C88.638 15.1738 88.7227 15.2845 88.7227 15.5059C88.7227 15.7988 88.5892 16.1016 88.3223 16.4141C87.9316 16.8698 87.4076 17.0977 86.75 17.0977C85.9948 17.0977 85.4772 16.7917 85.1973 16.1797C85.0931 15.9648 85.041 15.7044 85.041 15.3984C85.041 15.0924 85.0931 14.7539 85.1973 14.3828C85.3079 14.0052 85.4414 13.6113 85.5977 13.2012C85.7604 12.7845 85.9362 12.3646 86.125 11.9414L86.6426 10.7109C87.0202 9.79297 87.209 9.1875 87.209 8.89453C87.209 8.60156 87.1764 8.40951 87.1113 8.31836C87.0527 8.2207 86.9876 8.14583 86.916 8.09375L86.7207 7.95703C86.6556 7.91146 86.623 7.83333 86.623 7.72266C86.623 7.60547 86.6654 7.49479 86.75 7.39062C86.8411 7.28646 86.9583 7.19531 87.1016 7.11719C87.3945 6.96745 87.7363 6.89258 88.127 6.89258C89.084 6.89258 89.5625 7.14323 89.5625 7.64453C89.5625 8.23047 89.4095 8.90104 89.1035 9.65625C88.7975 10.4049 88.5371 11.0104 88.3223 11.4727L87.7363 12.8203C87.3066 13.8099 87.0918 14.5228 87.0918 14.959C87.0918 15.2454 87.235 15.3887 87.5215 15.3887C87.8014 15.3887 88.013 15.3529 88.1562 15.2812C88.2995 15.2096 88.4036 15.1738 88.4688 15.1738ZM97.9609 8.73828C97.7591 8.73828 97.4727 8.93359 97.1016 9.32422C96.7305 9.70833 96.4082 10.0599 96.1348 10.3789L95.3047 11.375L93.7031 13.416C93.3255 14.1322 93.0293 14.7279 92.8145 15.2031L92.2871 16.3359C92.1504 16.6159 92.0299 16.8145 91.9258 16.9316C91.8281 17.0423 91.6914 17.0977 91.5156 17.0977C91.3464 17.0977 91.1803 17.0651 91.0176 17C90.8613 16.9414 90.7246 16.8633 90.6074 16.7656C90.36 16.5573 90.2363 16.3294 90.2363 16.082C90.2363 15.9844 90.3079 15.7923 90.4512 15.5059L90.8223 14.7148C90.9395 14.4805 91.0762 14.181 91.2324 13.8164L91.7793 12.4785C92.5475 10.5579 92.9316 9.31771 92.9316 8.75781C92.9316 8.45833 92.834 8.23698 92.6387 8.09375L92.4434 7.95703C92.3783 7.91146 92.3457 7.83333 92.3457 7.72266C92.3457 7.60547 92.388 7.49479 92.4727 7.39062C92.5638 7.28646 92.681 7.19531 92.8242 7.11719C93.1172 6.96745 93.4102 6.89258 93.7031 6.89258C94.0026 6.89258 94.2337 6.92513 94.3965 6.99023C94.5592 7.05534 94.696 7.14323 94.8066 7.25391C95.0475 7.48177 95.168 7.7194 95.168 7.9668C95.168 8.21419 95.1354 8.46484 95.0703 8.71875C95.0117 8.96615 94.9336 9.22005 94.8359 9.48047C94.7448 9.73438 94.6471 9.98503 94.543 10.2324C94.4388 10.4798 94.3444 10.6947 94.2598 10.877L94.0645 11.2969C94.0124 11.401 93.9993 11.4336 94.0254 11.3945C94.748 10.3919 95.2233 9.7474 95.4512 9.46094L96.1348 8.64062C96.6361 8.05469 97.0299 7.66732 97.3164 7.47852C97.8958 7.08789 98.3516 6.89258 98.6836 6.89258C99.0156 6.89258 99.2956 6.9349 99.5234 7.01953C99.7513 7.10417 99.9499 7.22461 100.119 7.38086C100.477 7.71289 100.656 8.13607 100.656 8.65039C100.656 9.16471 100.539 9.70182 100.305 10.2617C100.07 10.8216 99.8652 11.2773 99.6895 11.6289C99.5202 11.974 99.3574 12.3255 99.2012 12.6836C98.7129 13.7708 98.4688 14.5618 98.4688 15.0566C98.4688 15.278 98.6445 15.3887 98.9961 15.3887C99.2695 15.3887 99.5169 15.3301 99.7383 15.2129C99.9661 15.0957 100.113 15.0371 100.178 15.0371C100.314 15.0371 100.383 15.1055 100.383 15.2422C100.383 15.8216 100.087 16.3066 99.4941 16.6973C99.097 16.9642 98.7324 17.0977 98.4004 17.0977C98.0684 17.0977 97.7917 17.0618 97.5703 16.9902C97.3555 16.9186 97.1634 16.8047 96.9941 16.6484C96.61 16.3034 96.418 15.8216 96.418 15.2031C96.418 14.4479 96.6556 13.5039 97.1309 12.3711C97.4759 11.5964 97.7201 11.0658 97.8633 10.7793L98.1953 10.0859C98.3971 9.66927 98.498 9.34049 98.498 9.09961C98.498 8.85872 98.319 8.73828 97.9609 8.73828ZM107.834 14.4414C108.023 14.4414 108.117 14.5684 108.117 14.8223C108.117 15.0371 108.052 15.2454 107.922 15.4473C107.746 15.8249 107.395 16.1829 106.867 16.5215C106.268 16.9056 105.666 17.0977 105.061 17.0977C104.012 17.0977 103.348 16.6289 103.068 15.6914C102.736 14.5781 103.234 12.2181 104.562 8.61133C103.814 8.54622 103.407 8.41602 103.342 8.2207C103.322 8.16211 103.312 8.10026 103.312 8.03516C103.312 7.96354 103.342 7.88216 103.4 7.79102C103.465 7.69987 103.547 7.61198 103.645 7.52734C103.872 7.33854 104.104 7.24414 104.338 7.24414H105.109C105.812 5.59701 106.314 4.65951 106.613 4.43164C106.757 4.32747 106.916 4.27539 107.092 4.27539C107.268 4.27539 107.414 4.29818 107.531 4.34375C107.648 4.38932 107.753 4.45443 107.844 4.53906C108.052 4.73438 108.156 4.95247 108.156 5.19336C108.156 5.32357 108.117 5.47331 108.039 5.64258L107.316 7.21484H107.551C107.954 7.21484 108.28 7.21159 108.527 7.20508C108.527 7.20508 108.713 7.20182 109.084 7.19531C109.208 7.1888 109.361 7.18555 109.543 7.18555C109.732 7.18555 109.826 7.25391 109.826 7.39062C109.826 8.25 108.811 8.67969 106.779 8.67969H106.701L106.037 10.3984C105.288 12.4297 104.914 13.8522 104.914 14.666C104.914 14.8939 104.966 15.0729 105.07 15.2031C105.174 15.3268 105.37 15.3887 105.656 15.3887C105.943 15.3887 106.203 15.3398 106.438 15.2422C106.672 15.1445 106.877 15.0371 107.053 14.9199C107.229 14.7962 107.378 14.6855 107.502 14.5879C107.632 14.4902 107.743 14.4414 107.834 14.4414ZM108.869 15.2812C108.869 15.0794 108.911 14.8939 108.996 14.7246C109.087 14.5488 109.198 14.4023 109.328 14.2852C109.602 14.0312 109.888 13.9043 110.188 13.9043C110.448 13.9043 110.578 14.0378 110.578 14.3047C110.578 14.9818 110.803 15.4538 111.252 15.7207C111.415 15.8184 111.584 15.8672 111.76 15.8672C111.936 15.8672 112.085 15.8477 112.209 15.8086C112.333 15.7695 112.447 15.7077 112.551 15.623C112.785 15.4342 112.902 15.2096 112.902 14.9492C112.902 14.6888 112.844 14.4512 112.727 14.2363C112.609 14.015 112.463 13.7839 112.287 13.543L111.73 12.7617C110.949 11.7201 110.559 10.7598 110.559 9.88086C110.559 9.15169 110.868 8.49089 111.486 7.89844C112.189 7.22786 113.091 6.89258 114.191 6.89258C115.155 6.89258 115.907 7.13021 116.447 7.60547C116.89 7.98958 117.111 8.42904 117.111 8.92383C117.111 9.43815 116.916 9.84831 116.525 10.1543C116.174 10.4277 115.822 10.5286 115.471 10.457C115.314 10.4245 115.194 10.3464 115.109 10.2227C115.025 10.0924 115.008 9.94596 115.061 9.7832C115.113 9.62044 115.139 9.45117 115.139 9.27539C115.139 9.09961 115.106 8.93685 115.041 8.78711C114.976 8.63737 114.888 8.51042 114.777 8.40625C114.549 8.19141 114.309 8.08398 114.055 8.08398C113.807 8.08398 113.602 8.11328 113.439 8.17188C113.277 8.22396 113.133 8.30208 113.01 8.40625C112.756 8.64062 112.629 8.93034 112.629 9.27539C112.629 9.61393 112.688 9.9069 112.805 10.1543C112.922 10.4017 113.065 10.6491 113.234 10.8965C113.41 11.1439 113.599 11.3945 113.801 11.6484C114.003 11.9023 114.188 12.1693 114.357 12.4492C114.768 13.1068 114.973 13.6862 114.973 14.1875C114.973 14.6823 114.868 15.099 114.66 15.4375C114.452 15.7695 114.182 16.056 113.85 16.2969C113.14 16.8242 112.346 17.0879 111.467 17.0879C110.627 17.0879 109.963 16.8861 109.475 16.4824C109.071 16.1439 108.869 15.7435 108.869 15.2812Z" fill="#474644"/>
</svg>
