<svg viewBox="0 0 1200 980" fill="none" xmlns="http://www.w3.org/2000/svg" stroke="none" strokeWidth="2">
<path d="M893.294 157.382C848.347 128.088 710.659 291.788 643.522 271.111C576.385 250.433 591.747 0 545.092 0C498.438 0 557.609 321.657 457.473 340.037C357.336 358.417 254.924 173.465 254.924 256.751C254.924 340.037 354.49 360.715 354.49 428.492C354.49 496.27 -81.8969 352.099 13.6864 428.492C109.27 504.886 370.421 523.266 390.904 584.151C411.386 645.036 141.7 762.786 223.632 786.335C305.563 809.885 442.11 723.153 479.661 771.976C517.212 820.799 442.111 1002.88 545.092 977.606C648.074 952.333 611.661 770.827 690.177 786.335C768.693 801.844 827.295 977.606 955.88 977.606C1084.46 977.606 860.295 809.885 893.294 721.43C926.294 632.974 1142.5 738.087 1109.5 622.061C1076.5 506.035 955.88 574.961 925.725 456.063C895.57 337.165 1078.77 312.466 1054.88 271.111C1030.98 229.755 873.95 414.707 816.485 370.479C759.021 326.252 938.242 186.676 893.294 157.382Z" />
<path d="M186.648 112.005C186.648 152.965 223.632 191.845 223.632 191.845C223.632 191.845 157.204 126.939 140.704 90.7531C124.205 54.5668 122.356 35.0376 158.2 22.9755C194.044 10.9133 186.648 71.046 186.648 112.005Z" />
<path d="M1188.01 409.538C1160.13 390.583 1033.83 456.063 1033.83 456.063H1156.72C1190.86 456.063 1215.89 428.492 1188.01 409.538Z" />
</svg>
